SplineFontDB: 3.0
FontName: Besley-it-BoldItalic
FullName: Besley* Bold Italic
FamilyName: Besley*
Weight: Bold
Copyright: Copyright (c) 2017, Owen Earl,,, (EwonRael@yahoo.com)
Version: 001.1
ItalicAngle: -13
UnderlinePosition: -100
UnderlineWidth: 50
Ascent: 800
Descent: 200
InvalidEm: 0
LayerCount: 2
Layer: 0 0 "Back" 1
Layer: 1 0 "Fore" 0
XUID: [1021 31 -699969567 16487490]
FSType: 0
OS2Version: 0
OS2_WeightWidthSlopeOnly: 0
OS2_UseTypoMetrics: 1
CreationTime: 1460762150
ModificationTime: 1500758408
PfmFamily: 17
TTFWeight: 700
TTFWidth: 5
LineGap: 100
VLineGap: 0
OS2TypoAscent: 800
OS2TypoAOffset: 0
OS2TypoDescent: -200
OS2TypoDOffset: 0
OS2TypoLinegap: 100
OS2WinAscent: 900
OS2WinAOffset: 0
OS2WinDescent: 300
OS2WinDOffset: 0
HheadAscent: 900
HheadAOffset: 0
HheadDescent: -200
HheadDOffset: 0
OS2CapHeight: 700
OS2XHeight: 460
OS2FamilyClass: 1024
OS2Vendor: 'PfEd'
OS2UnicodeRanges: 00000001.00000000.00000000.00000000
Lookup: 5 0 0 "'calt' Contextual Alternates lookup 1" { "'calt' Contextual Alternates lookup 1-1"  } ['calt' ('DFLT' <'dflt' > 'grek' <'dflt' > 'latn' <'dflt' > ) ]
Lookup: 1 0 0 "'ss01' Style Set 1 lookup 2" { "'ss01' Style Set 1 lookup 2-1"  } ['ss01' ('DFLT' <'dflt' > 'grek' <'dflt' > 'latn' <'dflt' > ) ]
Lookup: 4 0 1 "'liga' Standard Ligatures lookup 0" { "Not your mama's contextual ligatures"  } ['liga' ('DFLT' <'dflt' > 'grek' <'dflt' > 'latn' <'dflt' > ) ]
Lookup: 258 0 0 "Kern like there's no tomorrow" { "Get it right" [150,0,5] } ['kern' ('DFLT' <'dflt' > 'grek' <'dflt' > 'latn' <'dflt' > ) ]
MarkAttachClasses: 1
DEI: 91125
KernClass2: 17 15 "Get it right"
 13 backslash A L
 3 B S
 5 D O Q
 1 E
 3 F P
 5 G g r
 7 H I M N
 3 J U
 5 K X Z
 3 T Y
 9 a h m n u
 15 b c e o p v w y
 5 d i l
 1 f
 7 k x z t
 9 slash W V
 3 A J
 23 B D E F H I K L M N P R
 7 C G O Q
 3 T Y
 1 U
 3 V W
 3 X Z
 13 a c d e o q s
 5 b l t
 19 f m n p r u y w i j
 3 h k
 1 v
 3 x z
 12 period comma

StartChar: ampersand
Encoding: 38 38 0
Width: 880
Flags: HMW
LayerCount: 2
Fore
SplineSet
663 334 m 0
 618 334 594 368 594 416 c 0
 594 466 650 509 719 509 c 0
 807 509 830 436 830 375 c 0
 830 295.343707125 754.403784244 198.337463092 642.081024971 121.000003369 c 0
 620.547852828 106.173793222 614.302977564 95.1985837813 640 79.6020909827 c 0
 650.881847743 72.9974868742 664.704435027 71 684 71 c 0
 698.107603529 71 715.825628415 79.1234480542 731.999999168 95.0671632514 c 0
 750.121751918 112.93048969 747.812343408 128.125104395 773 111.333333333 c 2
 796 96 l 2
 819.131054312 80.5792971257 821.166141121 79.2055528714 804 56.2449548219 c 4
 759.914032205 -2.72229815611 698.840453452 -35 611 -35 c 0
 567.962801877 -35 527.293084817 -26.8816613509 493.000003184 0.815174190171 c 0
 464.011969509 24.2273833915 466.463919371 28.5995841585 424.000007859 15.5693905076 c 0
 361.122480419 -3.72478964811 295.316126941 -15 230 -15 c 0
 87 -15 1 57 1 160 c 0
 1 308.689675778 106.772184159 371.096859681 222.999996301 418.571756905 c 0
 261.792863476 434.417253334 263.253859472 433.004209947 245 470 c 1
 228 512 219 548 219 583 c 0
 219 703 354 770 500 770 c 0
 607 770 696 729 696 655 c 0
 696 543.979416838 594.796618231 497.288111987 483.000003581 453.562380659 c 0
 456.71348539 443.281235424 455.591302747 443.923337506 467.625714286 419 c 2
 567.094285714 213 l 2
 584.503115014 176.94621151 588.877435682 184.686167572 617.947352652 206.999998165 c 0
 679.462477378 254.21850496 716 303.498446349 716 329 c 0
 716 345 714 350 709 350 c 0
 700 350 697 334 663 334 c 0
191 190 m 0
 191 128 231 90 285 90 c 0
 319.185398206 90 352.313184281 93.6118452043 383.999991213 99.9785975865 c 0
 422.873648307 107.789386141 423.284782572 108.66346206 407.823218997 140 c 2
 310.622691293 337 l 2
 293.140144687 372.432540981 288.218843528 366.595354439 260.196550121 342 c 0
 218.296273918 305.223847194 191 257.422366599 191 190 c 0
522 655 m 0
 522 692 516 710 483 710 c 0
 446 710 404 673 404 620 c 0
 404 598.565574787 408.500583682 573.380663172 418.190804077 541 c 0
 430.884990305 498.581339566 442.839439929 512.454830919 469.627149859 537 c 0
 501.912935205 566.582971531 522 603.948003998 522 655 c 0
EndSplineSet
EndChar

StartChar: period
Encoding: 46 46 1
Width: 265
Flags: HMW
LayerCount: 2
Fore
SplineSet
-35 80 m 0
 -35 135 10 180 65 180 c 0
 120 180 165 135 165 80 c 0
 165 25 120 -20 65 -20 c 0
 10 -20 -35 25 -35 80 c 0
EndSplineSet
EndChar

StartChar: zero
Encoding: 48 48 2
Width: 530
Flags: HMW
LayerCount: 2
Fore
SplineSet
15 190 m 0
 15 403 152 580 325 580 c 0
 418 580 515 523 515 370 c 0
 515 147 368 -20 205 -20 c 0
 122 -20 15 47 15 190 c 0
195 180 m 0
 195 108 200 60 225 60 c 0
 279 60 335 258 335 380 c 0
 335 462 334 500 305 500 c 0
 241 500 195 302 195 180 c 0
EndSplineSet
EndChar

StartChar: one
Encoding: 49 49 3
Width: 530
VWidth: 1155
Flags: HMW
LayerCount: 2
Fore
SplineSet
418 0 m 6
 32 0 l 2
 -1.41435308034 0 5 9.68131334674 5 41 c 2
 5 79 l 2
 5 102.10274083 7.57169458822 100 30 100 c 2
 110 100 l 2
 152.869886168 100 150.538125489 105.432628168 158.668888889 139 c 2
 206.144444444 335 l 2
 212.287870084 360.362766401 226.354562902 375 190 375 c 2
 136 375 l 2
 98.552736271 375 92 369.965249877 92 409 c 2
 92 437 l 2
 92 470.762599248 100.231974274 465 132 465 c 0
 192.854004039 465 280.062347848 467.550419978 355.999996851 563.578426824 c 0
 366.697940888 577.106660273 367.576950826 590 394 590 c 2
 418 590 l 2
 452.792390165 590 433.483696673 562.538435981 427.898305085 539 c 2
 333.93220339 143 l 2
 325.306238105 106.647717726 316.308851925 100 364 100 c 2
 414 100 l 2
 448.221011745 100 450 101.525686746 450 67 c 2
 450 43 l 2
 450 7.23328657825 455.377564509 0 418 0 c 6
EndSplineSet
EndChar

StartChar: two
Encoding: 50 50 4
Width: 530
VWidth: 1155
Flags: HMW
LayerCount: 2
Fore
SplineSet
485.164585381 169.000005424 m 0
 452.851118111 48.1426012351 390.621567238 -40 280 -40 c 0
 173 -40 148 30 85 30 c 0
 54.767166554 30 33.2341472012 19.1252323834 19.9999967733 1.38514883458 c 0
 10.0703530309 -11.9253171874 14.6128249141 -20 -8 -20 c 2
 -32 -20 l 2
 -44.6558208746 -20 -49.1720463203 -19.5560514377 -41.8084516643 6 c 0
 -1.77941913922 144.924541884 114.885679851 212.82035571 222 269 c 0
 324.8359375 322.935546875 342 406 342 450 c 0
 342 492 313 508 274 508 c 0
 240 508 194 498 194 473 c 0
 194 455 242 456 242 398 c 0
 242 341 192 300 145 300 c 0
 96 300 51 338 51 406 c 0
 51 518 190 580 322 580 c 0
 433 580 523 530 523 430 c 0
 523 320 410.857421875 244.379882812 247 195 c 0
 223.494334514 187.916386186 189.575195312 180.38671875 165 168.765625 c 4
 141.584960938 157.692382812 120.925299528 139.689752592 161.999997838 156.803178323 c 0
 174.657424227 162.076787999 187.919001889 162.99999994 200 163 c 0
 250 163 286 123 332 123 c 0
 365.557984399 123 393.025442476 136.399157908 408.223269034 167 c 0
 415.894517965 182.446068969 410.546068303 197 436 197 c 2
 468 197 l 2
 497.621998275 197 490.990208388 190.788743492 485.164585381 169.000005424 c 0
EndSplineSet
EndChar

StartChar: three
Encoding: 51 51 5
Width: 530
VWidth: 1155
Flags: HMW
LayerCount: 2
Fore
SplineSet
-60 -21 m 0
 -60 47 -27 115 52 115 c 0
 116 115 136 67 136 37 c 0
 136 -44 72 -23 72 -56 c 0
 72 -68 82 -89 136 -89 c 0
 235 -89 264 -14 264 90 c 0
 264 153.773440254 244.978924957 178.928334209 210.000005662 187.344901794 c 0
 178.610321192 194.897833849 172 185.172000348 172 226 c 2
 172 254 l 2
 172 292.122383014 201.29153359 279.540676814 228.000000007 286.220248489 c 4
 321.8062701 309.680438784 324 393.374383343 324 431 c 0
 324 485 298 503 256 503 c 0
 222 503 187 494 187 468 c 0
 187 445 216 440 216 404 c 0
 216 357 176 326 139 326 c 0
 100 326 55 354 55 412 c 0
 55 494 144 580 316 580 c 0
 407 580 505 541 505 431 c 0
 505 355.848775177 450.868287511 282.121282948 348 252.060546875 c 0
 294.263671875 236.357421875 292.934570312 233.762695312 346 220.140625 c 0
 400.218554721 206.222543699 444.999999987 158.915184801 445 90 c 0
 445 -50 317 -170 136 -170 c 0
 4 -170 -60 -93 -60 -21 c 0
EndSplineSet
EndChar

StartChar: four
Encoding: 52 52 6
Width: 530
VWidth: 1155
Flags: HMW
LayerCount: 2
Fore
SplineSet
450 -107 m 2
 450 -123 l 2
 450 -152.639711275 446.782466056 -150 418 -150 c 2
 118 -150 l 2
 90.2500466404 -150 85 -153.964518526 85 -125 c 2
 85 -103 l 2
 85 -73.9396812052 81.8179790875 -70 112 -70 c 2
 152 -70 l 2
 182.456127626 -70 187.405414511 -72.3923282377 193.100263852 -47 c 2
 207.005277045 15 l 2
 212.943656725 41.4781870425 218.045423531 45 184 45 c 2
 20 45 l 2
 -14.3434874916 45 -15 44.4779486716 -15 79 c 0
 -15 107.240728471 -10.4484533425 117.239888829 -0.695741204215 134.999983134 c 0
 66.8067063483 257.924746762 238.475568729 383.73667214 280.572469908 506.999983082 c 0
 293.572962467 545.066532205 277.879299979 560 328 560 c 2
 410 560 l 2
 449.31058372 560 463.520163021 564.790262446 453.597703897 525 c 0
 419.101698707 386.666842593 190.943274196 269.265463164 92.3858669561 163 c 0
 73.8451976371 143.0092873 45.888042343 125 94 125 c 2
 202 125 l 2
 233.489822776 125 232.33671663 127.948418855 237.955145119 153 c 2
 249.168865435 203 l 2
 255.848374936 232.782754125 260.473902748 232.660571613 287.999998889 245.233043777 c 0
 325.396031328 262.313583438 371.837178928 283.553671606 402 315.297851562 c 4
 418.112304688 332.254882812 422.982831959 349 436 349 c 0
 462.098387692 349 457.140764967 345.205678925 452.565130261 325 c 2
 415.879759519 163 l 2
 411.060721479 141.719469187 397.270049538 125 428 125 c 2
 460 125 l 2
 487.319501872 125 490 127.275313211 490 99 c 2
 490 75 l 2
 490 42.7781004965 487.376410402 45 456 45 c 2
 418 45 l 2
 385.957061165 45 388.117104798 40.4020822479 382.364729459 15 c 2
 372.853707415 -27 l 2
 367.151073789 -52.1824263667 351.803177424 -70 388 -70 c 2
 426 -70 l 2
 455.890778422 -70 450 -79.0121961307 450 -107 c 2
EndSplineSet
EndChar

StartChar: five
Encoding: 53 53 7
Width: 530
VWidth: 1155
Flags: HMW
LayerCount: 2
Fore
SplineSet
-25 -11 m 0
 -25 55 20 105 79 105 c 0
 126 105 161 82 161 25 c 0
 161 -19.1467828356 132.365459177 -32.8693660472 113.403130723 -44 c 0
 97.5621868859 -53.298422804 90.6016119479 -64.6351937115 102 -83.4254563926 c 0
 108.516889117 -94.1685595235 123.243015739 -103 156 -103 c 0
 245 -103 299 -24 299 110 c 0
 299 204 276 232 237 232 c 0
 208.235599874 232 189.813583681 224.760331247 165 209.16539698 c 0
 148.701400017 198.921991649 138.481535768 187 106 187 c 2
 63 187 l 2
 39.3784276385 187 44.3076524938 194.149939694 56.8465608466 233 c 2
 154.640625 531 l 6
 163.7890625 559.346679688 165.927734375 560 204 560 c 6
 302 560 l 6
 413.499023438 560 418.27140458 549.637962551 445 583.618141655 c 0
 453.315280423 594.189393666 455.990347404 597 477 597 c 2
 521 597 l 2
 547.908381322 597 544.38916916 595.245819125 537.6875 576 c 2
 506 485 l 2
 479 407 497 395 260 395 c 2
 231 395 l 2
 206.94061093 395 200.009759112 397.718761838 193.968253968 379 c 2
 172.666666667 313 l 2
 160.060534135 273.941654943 172.425039502 291.215960892 202 301.232886046 c 0
 228.380707756 310.167930104 256.911276553 315 288 315 c 0
 409 315 480 230 480 130 c 0
 480 -50 357 -170 166 -170 c 0
 44 -170 -25 -103 -25 -11 c 0
EndSplineSet
EndChar

StartChar: six
Encoding: 54 54 8
Width: 530
VWidth: 1155
Flags: HMW
LayerCount: 2
Fore
SplineSet
245 435.773123096 m 4
 271.551151258 453.977186875 304.790977658 464.999999991 346 465 c 0
 427 465 505 420 505 290 c 0
 505 150 410 -20 209 -20 c 0
 88 -20 25 70 25 220 c 0
 25 470 203 730 384 730 c 0
 466 730 535 693 535 611 c 0
 535 553 500 505 441 505 c 0
 384 505 354 528 354 575 c 0
 354 621 396 633 396 651 c 0
 396 659 384 664 369 664 c 0
 314.07041488 664 256.855315819 576.388632253 221.099600888 459.000005033 c 0
 200.174335419 390.300828068 200.75323955 405.436553452 245 435.773123096 c 4
185 220 m 0
 185 138.818359375 191.305664062 60 229 60 c 0
 298 60 335 176 335 310 c 0
 335 354 328 381 299 381 c 0
 241 381 185 300 185 220 c 0
EndSplineSet
EndChar

StartChar: seven
Encoding: 55 55 9
Width: 530
VWidth: 1155
Flags: HMW
LayerCount: 2
Fore
SplineSet
25.5689263937 379.999994568 m 0
 57.8062378789 501.370883999 120.073557684 590 231 590 c 0
 338 590 353 520 416 520 c 0
 447.807169781 520 469.984870917 532.036835806 483.000003019 551.441511319 c 0
 490.239147518 562.234582714 487.094237221 570 506 570 c 2
 542 570 l 2
 565.901109368 570 561.296127006 561.999503347 554.456294351 542.000002581 c 0
 528.018308725 464.695989392 411.772358016 325.807290109 309 208 c 0
 231.947375906 119.675074742 213 99 213 55 c 0
 213 -8 266 -4 266 -80 c 0
 266 -137 211 -170 157 -170 c 0
 108 -170 56 -131 56 -52 c 0
 56 37 128.556640625 138.651367188 220 231 c 0
 265.506395594 276.956881535 316.020841558 331.80738803 364.595703125 382 c 0
 386.998046875 405.1484375 391.749023438 415.536132812 359 397.896484375 c 0
 343.567140922 389.583863724 326.409531149 387 311 387 c 0
 261 387 225 427 179 427 c 0
 143.667256496 427 115.086285644 412.146100163 100.469325743 378 c 0
 94.7238676005 364.57826316 99.051465922 353 78 353 c 2
 45 353 l 2
 20.154296875 353 20.9707199538 362.688116508 25.5689263937 379.999994568 c 0
EndSplineSet
EndChar

StartChar: eight
Encoding: 56 56 10
Width: 530
VWidth: 1155
Flags: HMW
LayerCount: 2
Fore
SplineSet
175 140 m 0
 175 86 190 57 215 57 c 0
 258 57 305 136 305 250 c 0
 305 304 296 335 270 335 c 0
 231 335 175 234 175 140 c 0
100 490 m 0
 100 600 204 730 345 730 c 0
 446 730 530 680 530 570 c 0
 530 493.946738298 475.28515625 425.283203125 398 387.060546875 c 0
 357.715820312 367.137695312 356.310546875 368.858398438 396.385742188 347 c 0
 441.263671875 322.521484375 475.000000045 289.332057934 475 230 c 0
 475 110 376 -20 195 -20 c 0
 74 -20 5 40 5 140 c 0
 5 236.512903522 61.8017578125 306.639648438 150.005859375 344 c 4
 191.530273438 361.587890625 195.551757812 366.9921875 163.565429688 384 c 4
 127.403320312 403.228515625 99.9999999942 432.881808523 100 490 c 0
265 460 m 0
 265 426 271 395 295 395 c 0
 324 395 365 516 365 590 c 0
 365 634 355 650 337 650 c 0
 298 650 265 534 265 460 c 0
EndSplineSet
EndChar

StartChar: A
Encoding: 65 65 12
Width: 930
Flags: HMW
LayerCount: 2
Fore
SplineSet
452.330078125 561 m 0
 433.037109375 525.979492188 423.524846966 510.302078204 388.464052288 455 c 2
 308.581699346 329 l 2
 288.583893545 297.457069199 265.26032272 285 326 285 c 2
 504 285 l 2
 535.396821374 285 528.852587727 290.977839387 524.712230216 316 c 2
 502.374100719 451 l 2
 491.735206828 515.295923952 494.779729978 510.962269505 486.664616919 559 c 0
 479.165149218 603.393393619 470.411132812 593.8203125 452.330078125 561 c 0
218 0 m 2
 -16 0 l 2
 -50.2687117528 0 -60 -6.70504715863 -60 30 c 2
 -60 74 l 2
 -60 108.585565235 -55.5137122742 105 -22 105 c 2
 9 105 l 2
 54.0464041696 105 54.4006567783 123.962249868 71.0784313725 150 c 2
 451.549019608 744 l 2
 463.787557257 763.107104697 467.370180792 765 500 765 c 2
 608 765 l 2
 634.678878209 765 635.118606392 764.374249035 639.359477124 742 c 2
 753.843137255 138 l 2
 758.348880418 114.228320553 754.039059508 105 784 105 c 2
 812 105 l 2
 831.906454226 105 850 112.432968753 850 90 c 2
 850 22 l 2
 850 0.0742540781268 849.999812104 0 828 0 c 2
 468 0 l 2
 440.09450519 0 440 0.000239139846155 440 28 c 2
 440 78 l 2
 440 105.431603051 440.538292672 105 468 105 c 2
 528 105 l 2
 551.266027603 105 560.46875 103.909179688 556.8125 126 c 6
 550.194244604 162 l 2
 545.884507813 188.04580061 546.646164615 190 516 190 c 2
 262 190 l 2
 223.366280366 190 219.070930269 187.812910631 204.607843137 165 c 2
 185.588235294 135 l 2
 166.703926735 105.213410212 163.551944142 105 212 105 c 2
 244 105 l 2
 276.353483935 105 270 95.2979720803 270 65 c 2
 270 21 l 2
 270 -10.1363124057 245.741268189 0 218 0 c 2
EndSplineSet
EndChar

StartChar: B
Encoding: 66 66 13
Width: 822
Flags: HMW
LayerCount: 2
Fore
SplineSet
412 0 m 2
 -18 0 l 2
 -44.7443808797 0 -50 -3.93397020779 -50 24 c 2
 -50 79 l 6
 -50 105.420898438 -45.4972739538 105 -20 105 c 2
 48 105 l 2
 90.9382536883 105 86.3797636728 114.280142216 93.5733333333 148 c 2
 192.133333333 610 l 2
 198.867089524 641.564482142 204.033429244 645 164 645 c 2
 114 645 l 2
 85.6329320262 645 78 639.6486105 78 670 c 2
 78 726 l 2
 78 759.182776657 95.8821522901 750 126 750 c 2
 552 750 l 2
 723 750 812 690 812 570 c 0
 812 471.798956628 735.852539062 419.743164062 638 401.192382812 c 0
 583.9765625 390.951171875 590.227539062 385.083007812 640 374 c 0
 716.115234375 357.051757812 771.99999998 311.121479041 772 235 c 0
 772 75 653 0 412 0 c 2
402 105 m 2
 518 105 572 166 572 235 c 0
 572 304 538 335 472 335 c 2
 360 335 l 2
 326.566649778 335 323.698086227 336.084779188 317.706666667 308 c 2
 284.426666667 152 l 2
 276.794131271 116.222490335 264.26542705 105 312 105 c 2
 402 105 l 2
376 440 m 2
 472 440 l 2
 548 440 622 471 622 560 c 0
 622 619 598 645 542 645 c 2
 426 645 l 2
 388.589026695 645 389.1040657 642.675307969 382.56 612 c 2
 353.12 474 l 2
 347.204188633 446.269634219 339.438384984 440 376 440 c 2
EndSplineSet
EndChar

StartChar: C
Encoding: 67 67 14
Width: 847
Flags: HMW
LayerCount: 2
Fore
SplineSet
774.379520841 242.000003289 m 0
 724.170800685 118.617251166 619.194387476 -15 375 -15 c 0
 162 -15 35 75 35 295 c 0
 35 526 227 765 525 765 c 0
 604.215515942 765 657.431913747 746.203340266 694 716.782773009 c 0
 716.893219744 698.364212449 722.456114422 668.518893419 742.538461538 696 c 2
 764.461538462 726 l 2
 776.694888149 742.740373257 777.424320787 750 808 750 c 2
 851 750 l 6
 874.651367188 750 887.585231094 752.826963757 883.273684211 732 c 2
 832.761403509 488 l 2
 828.962002663 469.646962017 831.363425149 465 808 465 c 2
 740 465 l 2
 715.980713548 465 725.303047687 477.091330556 725.426171976 496.000001431 c 0
 726.173147126 610.715849992 627.889155916 654 533 654 c 0
 342 654 240 480 240 305 c 0
 240 173 289 98 403 98 c 0
 521.640784138 98 609.080170022 155.075728512 658.015549708 243.999994452 c 0
 673.483127965 272.107328067 668.230264869 285 714 285 c 2
 754 285 l 6
 790.982033616 285 787.121718361 273.312639683 774.379520841 242.000003289 c 0
EndSplineSet
EndChar

StartChar: D
Encoding: 68 68 15
Width: 898
Flags: HMW
LayerCount: 2
Fore
SplineSet
-19 105 m 2
 41 105 l 2
 78.465689285 105 76.066415691 109.981526584 82.4925925926 140 c 2
 183.963703704 614 l 2
 190.482335738 644.450357255 192.158065684 645 155 645 c 2
 105 645 l 2
 72.6406268808 645 77 650.800100118 77 682 c 2
 77 723 l 6
 77 745.814453125 75.982875503 750 99 750 c 2
 513 750 l 2
 786 750 863 608 863 465 c 0
 863 142 616 0 363 0 c 2
 -25 0 l 2
 -51.6950552618 0 -50 1.9866847114 -50 28 c 2
 -50 80 l 2
 -50 108.044637313 -46.1553211265 105 -19 105 c 2
299 105 m 2
 363 105 l 2
 507 105 658 243 658 485 c 0
 658 597 627 645 513 645 c 2
 417 645 l 2
 379.589026695 645 380.1040657 642.675307969 373.56 612 c 2
 272.44 138 l 2
 266.086997308 108.220299881 261.234944649 105 299 105 c 2
EndSplineSet
EndChar

StartChar: E
Encoding: 69 69 16
Width: 769
Flags: HMW
LayerCount: 2
Fore
SplineSet
321.893333333 326 m 2
 277.92 132 l 2
 270.940856578 101.209661372 276.129670673 105 312 105 c 2
 418 105 l 2
 547.219908374 105 606.157703003 134.358351312 646 269.435415681 c 0
 652.102151757 290.123498642 649.841968721 295 678 295 c 2
 718 295 l 2
 747.429368434 295 742.10833871 290.953229528 737.050847458 268 c 2
 684.169491525 28 l 2
 677.632819029 -1.66643671617 673.710041036 0 638 0 c 2
 -10 0 l 2
 -46.0195679496 0 -50 -3.32298909211 -50 34 c 2
 -50 72 l 6
 -50 97.4375 -49.4610318326 105 -24 105 c 2
 48 105 l 2
 87.6067497374 105 83.6627666063 113.218087969 90.64 144 c 2
 197.173333333 614 l 2
 203.553200341 642.146472094 208.056810125 645 172 645 c 2
 118 645 l 2
 88.8033958502 645 94 652.56322192 94 680 c 2
 94 722 l 2
 94 753.94988649 99.1371495389 750 130 750 c 2
 794 750 l 2
 831.719714586 750 828.645541648 748.319378505 822.250909091 718 c 2
 777.538181818 506 l 2
 774.042445397 489.425387657 777.839661685 475 756 475 c 2
 704 475 l 2
 670.438404273 475 685.022455032 491.786746226 688.970058793 516 c 0
 705.725246674 618.770602323 679.309304736 645 575 645 c 2
 436 645 l 2
 394.544387946 645 393.892429195 643.643069978 386.266666667 610 c 2
 352.72 462 l 2
 348.503992034 443.399964855 342.070895865 428 363 428 c 4
 432.096838383 428 476.593260607 445.661837242 502.000000764 486.496245819 c 0
 511.600998296 501.927231987 508.978792371 523 536 523 c 2
 568 523 l 2
 596.5471092 523 592.326747339 520.151623359 587.090909091 498 c 2
 536.509090909 284 l 2
 530.267704493 257.594134393 534.476234763 248 500 248 c 2
 480 248 l 2
 445.396234501 248 457.056641619 256.594647781 457.716967384 282.000022109 c 0
 458.865254918 326.179238192 433.745242076 348 363 348 c 2
 350 348 l 2
 325.350944418 348 326.328540101 345.567088682 321.893333333 326 c 2
EndSplineSet
EndChar

StartChar: F
Encoding: 70 70 17
Width: 749
Flags: HMW
LayerCount: 2
Fore
SplineSet
306.453333333 302 m 2
 268.373333333 134 l 2
 261.426669567 103.352953972 262.843311763 105 300 105 c 2
 336 105 l 2
 368.683731057 105 377 106.93359375 377 72 c 2
 377 36 l 2
 377 1.77898825492 378.525686746 0 344 0 c 2
 -14 0 l 2
 -44.7593578313 0 -50 -4.04963514128 -50 28 c 2
 -50 80 l 2
 -50 109.506591718 -43.8444378094 105 -16 105 c 2
 38 105 l 2
 77.6067497374 105 73.6627666063 113.218087969 80.64 144 c 2
 188.08 618 l 2
 192.468979816 637.363146248 195.125159779 645 162 645 c 2
 98 645 l 2
 72.3161991861 645 74 646.978888134 74 672 c 2
 74 730 l 2
 74 752.939239052 77.8578041612 750 100 750 c 2
 776 750 l 2
 813.856940276 750 808.115420231 745.876958702 801.705454545 716 c 2
 757.509090909 510 l 2
 751.835433985 483.554988915 755.917056247 475 722 475 c 2
 697 475 l 6
 665.702148438 475 672.236434471 484.825960433 675.613546704 508 c 0
 693.95779024 633.879803858 654.713186366 645 565 645 c 2
 418 645 l 2
 386.58587413 645 384.32421875 640.547851562 378.533203125 615 c 2
 339.546666667 448 l 2
 333.072910771 419.439312225 324.891514433 413 363 413 c 0
 437.306437953 413 475.868274328 437.07289494 498 485.841732912 c 0
 506.066786205 503.617472375 501.936890303 513 530 513 c 2
 554 513 l 2
 582.609376989 513 583.199452918 513.935894461 578.098360656 490 c 2
 524.819672131 240 l 2
 519.613636465 215.571678798 523.285202655 208 492 208 c 2
 466 208 l 2
 432.063919428 208 447.011998974 230.94668006 448.543647711 254 c 0
 452.542705996 314.191065919 434.305385005 333 363 333 c 2
 344 333 l 2
 310.457400473 333 312.482266616 328.598235069 306.453333333 302 c 2
EndSplineSet
EndChar

StartChar: G
Encoding: 71 71 18
Width: 937
Flags: HMW
LayerCount: 2
Fore
SplineSet
560 380 m 2
 900 380 l 2
 918.997985203 380 927 384.837136193 927 364 c 2
 927 316 l 2
 927 299.025056419 930.0859375 285 911 285 c 2
 854 285 l 2
 828.523102516 285 828.269221512 283.619401042 822.621212121 264 c 2
 804.196969697 200 l 2
 797.529891456 176.840675583 791.156238799 164.378134968 778 147.307609136 c 0
 717.758076053 69.1423116998 591.868583138 -20 384 -20 c 0
 176 -20 35 102 35 305 c 0
 35 536 247 770 525 770 c 0
 620.263168119 770 680.623015306 742.575962125 720 702.974102761 c 0
 740.097699117 682.761629404 737.772088282 683.394682489 756.032436899 706 c 2
 780.266135817 736 l 2
 789.990576757 748.038328494 793.089736544 750 816 750 c 2
 866 750 l 2
 889.986670368 750 897.340436108 754.462630362 893.488599917 732 c 2
 852.676949698 494 l 2
 848.188194495 467.82306933 849.632405636 465 818 465 c 2
 772 465 l 6
 740.262695312 465 746.196859567 476.827878612 745.197033467 501.999994408 c 0
 741.320275126 599.603177505 651.58816552 664 533 664 c 0
 352 664 240 480 240 305 c 0
 240 173 296 82 405 82 c 0
 462.443673081 82 508.438161362 91.6414187787 550 120.279636545 c 0
 570.803322697 134.614182494 583.990976058 146.522087691 592.543209877 176 c 2
 616.333333333 258 l 2
 623.563915128 282.922430866 620.508514497 285 594 285 c 6
 558 285 l 2
 530.933113182 285 527 281.86302169 527 310 c 2
 527 354 l 2
 527 383.4889311 531.489795999 380 560 380 c 2
EndSplineSet
EndChar

StartChar: H
Encoding: 72 72 19
Width: 943
Flags: HMW
LayerCount: 2
Fore
SplineSet
596 336 m 2
 344 336 l 2
 314.47465889 336 312.741121148 336.286505381 307.56 312 c 2
 271.293333333 142 l 2
 264.88051083 111.939894514 256.340432101 105 296 105 c 2
 342 105 l 2
 370.428530702 105 370 104.46200844 370 76 c 2
 370 36 l 2
 370 2.73803374341 372.374351513 0 338 0 c 2
 -20 0 l 2
 -50.9309012495 0 -50 1.09010307047 -50 32 c 2
 -50 84 l 2
 -50 110.690843237 -40.9063243839 105 -16 105 c 2
 40 105 l 2
 77.0982250927 105 74.5239735132 110.268625843 80.8666666667 140 c 2
 183.906666667 623 l 2
 188.854078608 646.190993475 187.845403893 645 160 645 c 2
 102 645 l 2
 75.8540162649 645 78 647.585345248 78 673 c 2
 78 729 l 2
 78 750.449449377 78.540708312 750 100 750 c 2
 450 750 l 2
 482.097553707 750 488 754.485905995 488 721 c 2
 488 673 l 2
 488 645.09450519 487.99976086 645 460 645 c 2
 406 645 l 2
 375.914991185 645 377.773047008 641.123657851 372.626666667 617 c 2
 341.48 471 l 2
 335.331064605 442.176865334 331.663051633 440 368 440 c 2
 606 440 l 2
 650.64850021 440 650.373600929 442.376254357 658.186666667 479 c 2
 685.066666667 605 l 2
 691.506431152 635.186396026 692.335697392 645 662 645 c 2
 630 645 l 2
 594.780561555 645 593 643.472601327 593 679 c 2
 593 721 l 2
 593 754.787201443 599.463565021 750 632 750 c 2
 960 750 l 2
 981.095556503 750 993 756.309931501 993 733 c 2
 993 671 l 2
 993 647.043362109 994.764823381 645 970 645 c 2
 918 645 l 2
 884.525876529 645 883.493934342 644.502817227 877.626666667 617 c 2
 779.706666667 158 l 2
 771.879870748 121.311894132 760.543026687 105 806 105 c 6
 848 105 l 2
 875.937774849 105 875 103.90653623 875 76 c 2
 875 30 l 2
 875 -0.422326699929 874.462549458 0 844 0 c 2
 492 0 l 2
 462.626271844 0 455 -5.40729952949 455 26 c 2
 455 78 l 2
 455 108.926867514 460.141916559 105 490 105 c 2
 546 105 l 2
 581.52065838 105 579.363382076 109.515853479 585.44 138 c 2
 621.28 306 l 2
 627.186896696 333.688578262 630.957612341 336 596 336 c 2
EndSplineSet
EndChar

StartChar: I
Encoding: 73 73 20
Width: 458
Flags: HMW
LayerCount: 2
Fore
SplineSet
364 0 m 6
 -10 0 l 2
 -41.6782411747 0 -50 -5.87875486945 -50 28 c 2
 -50 80 l 2
 -50 101.724171701 -52.5944820752 105 -30 105 c 2
 38 105 l 2
 78.831106716 105 75.6821733637 111.515843511 82.872 144 c 2
 188.226666667 620 l 2
 194.592761993 648.762478885 189.305230336 645 156 645 c 2
 104 645 l 2
 73.6943151863 645 78 650.818243102 78 680 c 2
 78 732 l 2
 78 758.58137282 98.3028854128 750 122 750 c 2
 476 750 l 2
 502.74438088 750 508 753.933970208 508 726 c 2
 508 678 l 2
 508 645.650193164 508.521643785 645 476 645 c 2
 424 645 l 2
 387.647180663 645 384.199461493 646.361188603 377.52 616 c 2
 273.24 142 l 2
 266.012238969 109.14654077 259.963112923 105 302 105 c 2
 352 105 l 2
 380.924295018 105 390 111.047699138 390 80 c 2
 390 20 l 2
 390 -2.93923905205 386.142195839 0 364 0 c 6
EndSplineSet
EndChar

StartChar: J
Encoding: 74 74 21
Width: 666
Flags: HMW
LayerCount: 2
Fore
SplineSet
392 645 m 2
 342 645 l 2
 309.316268943 645 301 639.066412081 301 674 c 2
 301 720 l 2
 301 753.567545588 305.485568801 750 338 750 c 2
 696 750 l 2
 727.678241175 750 736 755.878754869 736 722 c 2
 736 682 l 2
 736 655.906855984 742.614599584 645 714 645 c 2
 648 645 l 2
 612.36628708 645 614.633453244 639.948326583 607.9375 612 c 2
 537.979166667 320 l 2
 530.858605225 290.27939572 524.148287079 260.072468261 515.327091801 232.000006045 c 0
 470.908081495 90.6414997222 380.781432623 -15 196 -15 c 0
 39 -15 -40 75 -40 175 c 0
 -40 267 19 330 89 330 c 0
 154 330 203 287 203 221 c 0
 203 160.938568217 161.383104899 144.22806883 141.429575612 130 c 0
 130.710000376 122.356296869 126.795148575 115.557622967 135 101.891687946 c 4
 141.181800611 91.5953302078 156.795650611 80 196 80 c 0
 254.203844867 80 290.05229519 98.2261043122 318.307994317 178 c 0
 328.903468851 207.914045886 338.727331363 252.095121696 346.823529412 288 c 2
 420.333333333 614 l 2
 427.136127793 644.168914558 429.232366458 645 392 645 c 2
EndSplineSet
EndChar

StartChar: K
Encoding: 75 75 22
Width: 890
Flags: HMW
LayerCount: 2
Fore
SplineSet
782 -3 m 2
 657 -3 l 2
 453.29517003 -3 500.662118643 181.805019739 440.023752085 305.999997351 c 0
 420.982385579 344.999103383 414.638198442 333.306149118 386 309.352445194 c 2
 304 240.765598651 l 2
 284.041298496 224.071642587 275.416265551 217.438318342 268.416 186 c 2
 258.618666667 142 l 2
 252.129984752 112.859212957 250.470379436 102 280 102 c 6
 316 102 l 2
 344.802562184 102 346 103.02551716 346 74 c 2
 346 30 l 2
 346 -0.930901249456 344.90989693 0 314 0 c 2
 -12 0 l 2
 -46.033458376 0 -50 -3.28484489048 -50 32 c 2
 -50 78 l 2
 -50 105.431603051 -49.4617073283 105 -22 105 c 2
 30 105 l 2
 73.685589388 105 74.3945960724 106.339073056 82.24 142 c 2
 186.52 616 l 2
 193.346067062 647.027577554 191.31831369 645 154 645 c 2
 136 645 l 2
 101.853552878 645 105 648.855746211 105 682 c 2
 105 720 l 2
 105 753.567545588 109.485568801 750 142 750 c 2
 450 750 l 2
 472.773579463 750 483 756.013220378 483 731 c 2
 483 679 l 2
 483 647.717850564 485.342329056 645 453 645 c 2
 409 645 l 2
 375.420385332 645 371.066801743 647.006594656 364.830666667 619 c 2
 321.410666667 424 l 2
 306.99068559 359.239605943 317.073268764 378.127038554 354 409.846153846 c 2
 596 617.717948718 l 6
 630.528624503 647.377151817 610.201113505 645 585 645 c 4
 553.948862818 645 550 641.775376022 550 674 c 2
 550 717 l 2
 550 754.476631448 555.773830428 750 592 750 c 2
 860 750 l 2
 890.797983207 750 892 751.027595351 892 720 c 2
 892 676 l 2
 892 651.236099883 890.463867188 645 864 645 c 2
 828 645 l 2
 787.986240875 645 780.22883926 639.095285452 760 622.175379427 c 2
 540 438.161888702 l 2
 506.214099808 409.902518558 513.109248116 415.53081215 550.562839232 396.000001445 c 0
 712.168243163 311.728120989 641.239769689 102 753 102 c 2
 794 102 l 2
 827.016824869 102 822 95.1606996332 822 64 c 2
 822 22 l 2
 822 -9.62037919718 811.531273614 -3 782 -3 c 2
EndSplineSet
EndChar

StartChar: L
Encoding: 76 76 23
Width: 766
Flags: HMW
LayerCount: 2
Fore
SplineSet
594 0 m 2
 -14 0 l 2
 -53.2189756027 0 -50 3.87801787236 -50 42 c 2
 -50 76 l 2
 -50 102.925399612 -51.8118988803 105 -24 105 c 2
 43 105 l 6
 96.09765625 105 97.8698551714 163.452446116 106.52 204 c 2
 192.706666667 608 l 2
 199.93768697 641.89540767 204.85706351 645 162 645 c 2
 146 645 l 2
 104.392185751 645 94 637.542782974 94 682 c 2
 94 716 l 2
 94 753.190988656 97.8680376121 750 134 750 c 2
 470 750 l 2
 491.491934074 750 500 755.211195551 500 732 c 2
 500 692 l 2
 500 658.811772444 508.391992937 645 472 645 c 2
 438 645 l 2
 399.054959192 645 391.420474564 648.845974519 384.413333333 616 c 2
 290.12 174 l 2
 282.311814125 137.399128712 257.592503675 105 310 105 c 2
 406 105 l 2
 527.070881788 105 574.729920047 154.201554705 611.782778181 274 c 0
 620.505356382 302.20163842 620.337329889 325 656 325 c 6
 682 325 l 2
 723.426539063 325 714.393461767 317.541072491 707.6 286 c 2
 655.476923077 44 l 2
 646.384497196 1.78516555187 645.800637204 0 594 0 c 2
EndSplineSet
EndChar

StartChar: M
Encoding: 77 77 24
Width: 1113
Flags: HMW
LayerCount: 2
Fore
SplineSet
773.998046875 520 m 0
 743.595703125 453.288085938 714.493149163 387.30327434 681.592105263 324 c 2
 531.907894737 36 l 2
 516.028381941 5.44701335428 518.248415931 -10 469 -10 c 2
 429 -10 l 2
 380.597123799 -10 387.103262935 2.2162726193 380.926315789 42 c 2
 336.521052632 328 l 2
 325.849097539 396.734626017 318.993164062 467.428710938 308.6328125 538 c 0
 297.23828125 615.6171875 294.842063481 610.767790605 278.456909085 534.000011228 c 0
 263.313737099 463.051171936 247.760478954 392.272211976 230.92 324 c 2
 195.4 180 l 2
 186.983307976 145.87827558 167.911402201 105 209 105 c 6
 245 105 l 2
 277.272164161 105 280 107.358445693 280 74 c 2
 280 42 l 2
 280 -10.0539604912 264.778018483 0 216 0 c 2
 -14 0 l 2
 -50.2867221096 0 -60 -6.82116436486 -60 32 c 2
 -60 56 l 2
 -60 100.33835037 -63.9197799507 105 -18 105 c 2
 20 105 l 2
 77.3587306054 105 68.8760051144 141.615809662 79.6133333333 184 c 2
 182.466666667 590 l 2
 191.024704642 623.781728851 211.202537786 645 162 645 c 2
 147 645 l 2
 108.785848673 645 107 643.467995562 107 682 c 2
 107 724 l 2
 107 756.353483935 116.70202792 750 147 750 c 2
 408 750 l 2
 465.296154029 750 455.459419005 728.078579568 462.731078905 682 c 2
 487.033816425 528 l 2
 496.595293647 467.411455561 506.684570312 404.754882812 516.3828125 342 c 0
 534.965820312 221.7578125 531.538123518 255.046617975 570.396901648 335.999983028 c 0
 603.089857754 404.108269951 636.210715167 471.743957762 670.210526316 538 c 2
 744.105263158 682 l 2
 768.137535196 728.832119868 764.691205933 750 840 750 c 2
 1077 750 l 2
 1118.22100644 750 1133 759.393640126 1133 715 c 2
 1133 685 l 2
 1133 650.241325278 1137.15117132 645 1101 645 c 2
 1047 645 l 2
 1006.11282814 645 1004.76983242 644.825956259 998.733333333 610 c 2
 919.693333333 154 l 2
 913.351833263 117.414422668 900.861879325 105 948 105 c 2
 993 105 l 2
 1022.66187977 105 1031 110.764146918 1031 79 c 2
 1031 40 l 2
 1031 -3.72757376812 1026.48571899 0 984 0 c 2
 681 0 l 2
 642.785848673 0 641 -1.53200443767 641 37 c 2
 641 73 l 2
 641 107.709226735 644.242948261 105 678 105 c 2
 705 105 l 2
 744.636671741 105 736.975754214 133.198634521 742.52 164 c 2
 767.72 304 l 2
 780.45842815 374.769045279 791.782855808 447.320893175 803.936055631 519.999984728 c 0
 819.11837563 610.793951851 809.47265625 597.84375 773.998046875 520 c 0
EndSplineSet
EndChar

StartChar: N
Encoding: 78 78 25
Width: 958
Flags: HMW
LayerCount: 2
Fore
SplineSet
134 645 m 2
 108 645 l 2
 85.1683117504 645 90 652.687284401 90 674 c 2
 90 722 l 2
 90 756.473057706 99.6630015417 750 132 750 c 2
 342 750 l 2
 398.813554303 750 398.872708271 739.981850596 418.793103448 706 c 2
 557.137931034 470 l 2
 584.178191246 423.872497286 609.710216207 378.434984627 633.455589185 328 c 0
 654.588898542 283.113017872 657.840225684 251.4751223 671.323857627 322 c 0
 679.313788295 363.790586212 687.579116604 405.138650498 696.16 446 c 2
 725.56 586 l 2
 734.168810296 626.994334743 752.166598679 645 696 645 c 0
 668.895812539 645 648 635.573863821 648 666 c 2
 648 718 l 2
 648 754.866256334 654.438023827 750 690 750 c 2
 930 750 l 2
 960.047698692 750 978 759.260485748 978 726 c 2
 978 680 l 2
 978 648.329749736 980.799842822 645 948 645 c 2
 892 645 l 2
 850.691110533 645 855.67760616 634.468629262 848.842105263 602 c 2
 729.263157895 34 l 2
 723.541341382 6.82137156631 722.445509795 -10 694 -10 c 2
 656 -10 l 2
 617.280236607 -10 615.755908944 14.6034300055 602.210526316 38 c 2
 341.684210526 488 l 6
 316.472074742 531.548234537 309.723795652 543.660985138 296.148355802 576 c 0
 275.952540389 624.109879459 278.610990004 607.068081521 270.50178972 558 c 0
 266.032563282 530.957090771 260.856685959 505.578215435 255.4 480 c 2
 181.586666667 134 l 2
 175.583337003 105.859392202 173.590848076 105 208 105 c 2
 232 105 l 2
 266.690060032 105 275 111.038952403 275 74 c 2
 275 26 l 2
 275 -2.62460436453 271.786290559 0 244 0 c 2
 -10 0 l 2
 -49.8649925852 0 -50 0.000341628351656 -50 40 c 2
 -50 78 l 2
 -50 105.431603051 -49.4617073283 105 -22 105 c 2
 20 105 l 2
 65.2687957376 105 59.8526022647 116.496573116 67.4266666667 152 c 2
 163.853333333 604 l 2
 171.365040869 639.211129072 179.090861798 645 134 645 c 2
EndSplineSet
EndChar

StartChar: O
Encoding: 79 79 26
Width: 910
Flags: HMW
LayerCount: 2
Fore
SplineSet
525 670 m 0
 331 670 240 427 240 285 c 0
 240 153 281 80 385 80 c 0
 579 80 670 323 670 465 c 0
 670 597 629 670 525 670 c 0
385 -20 m 0
 172 -20 35 97 35 300 c 0
 35 553 232 770 525 770 c 0
 738 770 875 653 875 450 c 0
 875 197 678 -20 385 -20 c 0
EndSplineSet
EndChar

StartChar: P
Encoding: 80 80 27
Width: 767
Flags: HMW
LayerCount: 2
Fore
SplineSet
358 395 m 6
 417 395 l 2
 513 395 577 461 577 560 c 0
 577 609 558 645 502 645 c 2
 424 645 l 2
 381.51216763 645 379.584986108 644.929622382 372.133333333 610 c 2
 335.013333333 436 l 2
 328.505563639 405.494829557 317.136995923 395 358 395 c 6
296.613333333 256 m 6
 272.293333333 142 l 2
 264.948206238 107.569716739 260.601316108 105 304 105 c 2
 338 105 l 2
 371.42260662 105 370 103.346512005 370 70 c 2
 370 40 l 2
 370 -0.904575670772 368.917495404 0 328 0 c 2
 -11 0 l 2
 -48.7801444613 0 -50 -1.03314579671 -50 37 c 2
 -50 79 l 2
 -50 107.172581414 -47.4032338338 105 -20 105 c 2
 37 105 l 2
 87.2479006676 105 79.1707353021 127.362821729 87.4133333333 166 c 2
 179.573333333 598 l 2
 186.775816776 631.761641135 200.507058618 645 155 645 c 2
 121 645 l 2
 86.8535528778 645 90 648.855746211 90 682 c 2
 90 726 l 2
 90 757.298082733 102.319479332 750 131 750 c 2
 517 750 l 2
 708 750 777 660 777 560 c 0
 777 380 598 290 417 290 c 2
 342 290 l 2
 303.131405415 290 303.414594223 287.88091042 296.613333333 256 c 6
EndSplineSet
EndChar

StartChar: Q
Encoding: 81 81 28
Width: 910
Flags: HMW
LayerCount: 2
Fore
SplineSet
525 670 m 0
 331 670 240 427 240 305 c 0
 240 153 281 90 385 90 c 0
 579 90 670 323 670 445 c 0
 670 597 629 670 525 670 c 0
385 -10 m 0
 172 -10 35 97 35 300 c 0
 35 553 232 770 525 770 c 0
 738 770 875 653 875 450 c 0
 875 197 678 -10 385 -10 c 0
694 -107.864257812 m 0
 694 -232.864257812 569 -249.864257812 490 -249.864257812 c 0
 280.463867188 -249.864257812 290.384765625 -98 233 -98 c 0
 222 -98 218 -99 218 -105 c 0
 218 -117 231 -116 231 -162 c 0
 231 -219 181 -250 134 -250 c 0
 87 -250 40 -222 40 -164 c 0
 40 -49 170 -27 249 -27 c 0
 448.536132812 -27 463.615234375 -178.864257812 501 -178.864257812 c 0
 513 -178.864257812 516 -175.864257812 516 -169.864257812 c 0
 516 -154.864257812 503 -160.864257812 503 -114.864257812 c 0
 503 -57.8642578125 556 -26.8642578125 603 -26.8642578125 c 0
 650 -26.8642578125 694 -53.8642578125 694 -107.864257812 c 0
EndSplineSet
EndChar

StartChar: R
Encoding: 82 82 29
Width: 865
Flags: HMW
LayerCount: 2
Fore
SplineSet
826.000005577 69.9820297407 m 4
 768.138953574 13.1400197793 703.934477336 7.1054273576e-15 639 0 c 0
 565 0 489 22 489 97 c 0
 489 147 512 173 512 223 c 0
 512 278 502 320 419 320 c 2
 353 320 l 2
 314.291195209 320 310.592237342 321.526112542 303.653333333 289 c 2
 272.506666667 143 l 2
 265.442386933 109.886188748 258.716737047 105 301 105 c 2
 335 105 l 2
 364.080494205 105 370 109.393962515 370 79 c 2
 370 39 l 2
 370 1.21985553871 371.033145797 0 333 0 c 2
 5 0 l 2
 -29.8818685121 0 -30 0.00029892480768 -30 35 c 2
 -30 75 l 2
 -30 105.4223267 -29.462549458 105 1 105 c 2
 37 105 l 2
 80.178913499 105 76.1200287729 113.062634873 83.36 147 c 2
 180.64 603 l 2
 187.319698981 634.311088974 198.928008448 645 157 645 c 2
 123 645 l 2
 81.7918418154 645 80 643.464052175 80 685 c 2
 80 719 l 2
 80 754.01397464 85.1283544983 750 119 750 c 2
 539 750 l 2
 720 750 809 700 809 580 c 0
 809 492.334167848 741.772460938 426.443359375 650 395.233398438 c 0
 592.26171875 375.59765625 583.9765625 376.479492188 644 353.875 c 0
 685.291992188 338.32421875 714.999999955 306.500003848 715 266 c 0
 715 210 684 183 684 156 c 0
 684 134 693 121 716 121 c 0
 731.294117647 121 743.474048443 126.190311419 756 136.570934256 c 0
 777.427480316 154.328514629 778.030762333 171.296647507 804 148.253521127 c 2
 828 126.957746479 l 2
 856.8574028 101.351882023 853.155784679 96.6595444547 826.000005577 69.9820297407 c 4
371 430 m 2
 469 430 l 2
 545 430 619 501 619 580 c 0
 619 619 595 645 539 645 c 2
 433 645 l 2
 386.578231506 645 380.252702265 648.059541867 371.92 609 c 2
 344.186666667 479 l 2
 336.503541007 442.985348469 322.652969135 430 371 430 c 2
EndSplineSet
Substitution2: "'ss01' Style Set 1 lookup 2-1" uniFFFD
EndChar

StartChar: S
Encoding: 83 83 30
Width: 709
Flags: HMW
LayerCount: 2
Fore
SplineSet
272 570 m 0
 272 429 672 485 672 225 c 0
 672 75 553 -25 322 -25 c 0
 242.558050501 -25 185.622613851 -4.95770388638 145.999999522 24.7395072849 c 0
 119.126459151 44.881267662 121.397294173 57.0302559681 95.6326530612 31 c 2
 85.7346938776 21 l 2
 68.4502612197 3.53737731471 64.887481586 -5 28 -5 c 2
 -12 -5 l 2
 -48.3112126692 -5 -37.7045805305 4.48773380716 -31.2903225806 31 c 2
 27.2580645161 273 l 2
 34.4951796678 302.913409294 34.4216673606 305 72 305 c 2
 104 305 l 6
 133.179590861 305 124.535319097 276.024871802 124.950599589 246.999997284 c 0
 126.760865606 120.476491006 222.075515295 69 322 69 c 0
 457 69 492 131 492 190 c 0
 492 341 95 278 95 528 c 0
 95 658 208 775 412 775 c 0
 473.903245675 775 526.817910413 754.326263845 567.999993662 721.896793326 c 0
 600.744052193 696.111976314 597.227178056 691.4343521 627.826530612 723 c 0
 644.61919558 740.322959651 647.731670874 750 684 750 c 2
 712 750 l 2
 743.060837161 750 747.931040687 744.913822622 744.166101695 727 c 2
 696.247457627 499 l 2
 690.104634787 469.772052616 696.013810776 455 658 455 c 2
 620 455 l 2
 581.724181947 455 589.444106532 459.732319511 589.565771804 492.999996508 c 0
 589.933442878 593.5345388 537.203289684 679 418 679 c 0
 339 679 272 632 272 570 c 0
EndSplineSet
EndChar

StartChar: T
Encoding: 84 84 31
Width: 779
Flags: HMW
LayerCount: 2
Fore
SplineSet
534.693333333 622 m 2
 432.72 144 l 2
 426.613698024 115.376709488 415.565521425 105 454 105 c 2
 510 105 l 2
 540.08742849 105 546 109.425716484 546 78 c 2
 546 30 l 2
 546 1.19743781565 547.02551716 0 518 0 c 2
 136 0 l 2
 105.586159618 0 101 -3.63227490524 101 28 c 2
 101 80 l 2
 101 109.882803682 107.848321287 105 136 105 c 2
 194 105 l 2
 235.991043454 105 237.084052348 117.581495383 245.28 156 c 2
 342.986666667 614 l 2
 349.55396439 644.784208078 356.45540089 650 317 650 c 0
 191.477130605 650 172.566804453 618.100183912 139.513631143 492 c 0
 134.008854375 470.998888963 138.209288407 455 108 455 c 2
 66 455 l 2
 36.8501670148 455 43.7918244414 471.695346421 49.7661016949 498 c 2
 101.094915254 724 l 2
 107.6147912 752.706916476 113.299015233 750 148 750 c 2
 798 750 l 2
 842.989952175 750 838.379295624 747.3462639 830.111864407 712 c 2
 778.654237288 492 l 2
 772.405136978 465.282832007 776.83688232 455 742 455 c 2
 708 455 l 6
 668.98828125 455 679.579220413 476.004333822 684.362466901 502 c 0
 706.037484106 619.797925128 693.476544199 650 607 650 c 2
 576 650 l 2
 542.094618889 650 540.639170771 649.871112988 534.693333333 622 c 2
EndSplineSet
EndChar

StartChar: U
Encoding: 85 85 32
Width: 875
Flags: HMW
LayerCount: 2
Fore
SplineSet
365 614 m 2
 289 310 l 2
 278.213867188 267.155273438 276 236 276 200 c 0
 276 135 309.13671875 88 404 88 c 0
 498 88 587 128 629 300 c 2
 705.755555556 614 l 2
 713.546306266 645.871252905 713.42644207 645 674 645 c 2
 636 645 l 2
 602.665378969 645 610 656.942452871 610 688 c 2
 610 716 l 2
 610 754.071942542 615.126271203 750 652 750 c 2
 896 750 l 2
 924.414696441 750 935 750.633789062 935 720 c 6
 935 684 l 2
 935 647.769728863 937.420971938 645 900 645 c 2
 864 645 l 2
 820.264186453 645 822.159832635 640.199315323 813.8 606 c 2
 739 300 l 2
 689 97 587 -25 369 -25 c 0
 162.212890625 -25 83 67 83 182 c 0
 83 219 88.8671875 258.262695312 99 300 c 2
 177.711111111 622 l 2
 183.726785828 646.609578386 182.150443973 645 152 645 c 2
 118 645 l 2
 80.6660780381 645 80 644.477421945 80 682 c 2
 80 718 l 2
 80 754.033904097 85.1269987288 750 120 750 c 2
 462 750 l 2
 488.806816381 750 490 751.023131983 490 724 c 2
 490 688 l 2
 490 644.619220029 489.464810991 645 446 645 c 2
 410 645 l 2
 372.894896233 645 372.377100607 643.508402428 365 614 c 2
EndSplineSet
EndChar

StartChar: V
Encoding: 86 86 33
Width: 885
Flags: HMW
LayerCount: 2
Fore
SplineSet
461.288702308 192 m 0
 486.99368134 233.274094003 502.510011163 264.990017608 524.705882353 300 c 2
 720.607843137 609 l 2
 737.807250311 636.12896183 755.32597301 645 704 645 c 2
 674 645 l 2
 637.732540824 645 640 647.654228741 640 683 c 2
 640 727 l 2
 640 758.290954955 655.517098475 750 684 750 c 2
 928 750 l 2
 957.640691826 750 970 757.50330188 970 725 c 2
 970 687 l 2
 970 653.312372681 975.986949015 645 940 645 c 2
 900 645 l 2
 859.451900757 645 859.686518548 632.418748346 844.68627451 609 c 2
 466.777777778 19 l 2
 450.480365798 -6.44391870256 450.159022723 -15 406 -15 c 2
 306 -15 l 2
 260.672138669 -15 269.125048231 15.9954351975 262.490196078 51 c 2
 158.241830065 601 l 2
 152.230262429 632.716201669 157.972591881 645 118 645 c 2
 90 645 l 2
 65.5393408364 645 60 640.907142513 60 667 c 2
 60 721 l 2
 60 756.876784323 70.3714501537 750 104 750 c 2
 420 750 l 2
 451.299686138 750 470 752.646484375 470 718 c 6
 470 689 l 2
 470 653.308854344 476.089700674 645 438 645 c 2
 400 645 l 2
 342.88950844 645 351.535299334 637.982321417 359.309352518 591 c 2
 406.798561151 304 l 2
 412.171175476 271.530722122 414.991320053 242.377911667 420.771107504 204 c 0
 428 156 437 153 461.288702308 192 c 0
EndSplineSet
EndChar

StartChar: W
Encoding: 87 87 34
Width: 1249
Flags: HMW
LayerCount: 2
Fore
SplineSet
435.973170084 257 m 0
 466.214980799 309.460433274 496.389563484 355.164722486 528.010736196 403 c 2
 633.777607362 563 l 2
 648.613286624 585.442837307 657.687421513 593.692554073 653.692105263 629 c 0
 651.460026176 648.725350074 644.829171512 645 624 645 c 2
 590 645 l 2
 560.574562082 645 561 645.537711545 561 675 c 2
 561 719 l 2
 561 750.928475735 562.089125185 750 594 750 c 2
 858 750 l 2
 891.257020861 750 901 756.644539398 901 721 c 2
 901 687 l 2
 901 657.359308174 908.50330188 645 876 645 c 2
 860 645 l 2
 829.198804405 645 825.671547816 647.873956608 828.971428571 619 c 2
 851.828571429 419 l 2
 856.938976229 374.283957995 859.779506104 331.981986403 864.055542711 281 c 0
 868.232505522 231.199242708 877.984381396 234.408869102 902.450195439 277 c 0
 925.258683291 316.705986891 946.412698748 354.953488123 969.390789474 393 c 2
 1104.07105263 616 l 2
 1115.89506554 635.577886301 1132.17102988 645 1094 645 c 2
 1066 645 l 2
 1025.46185789 645 1030 650.76787357 1030 690 c 2
 1030 718 l 2
 1030 754.033904097 1035.12699873 750 1070 750 c 2
 1290 750 l 2
 1322.77371279 750 1334 757.254243172 1334 722 c 2
 1334 676 l 2
 1334 645.643930597 1334.52118082 645 1304 645 c 2
 1278 645 l 2
 1237.94907962 645 1237.7744751 637.607565898 1223.38356164 614 c 2
 862.506849315 22 l 2
 851.274478102 3.57386295347 851.373699371 -10 820 -10 c 2
 764 -10 l 2
 721.105729361 -10 725.25448396 -3.41171871789 721.021052632 34 c 2
 688.318421053 323 l 2
 684.903264881 353.180449886 684.104840461 379.881207493 680.72910025 417 c 0
 676 469 670 457 646.880590588 417 c 0
 625.334663067 379.72235655 610.15436169 353.231542535 590 323 c 2
 390.666666667 24 l 2
 375.685930521 1.52889578166 375.707364835 -10 336 -10 c 2
 292 -10 l 2
 261.869900089 -10 255.529211965 -13.8304866071 251.684210526 14 c 2
 169.065789474 612 l 2
 164.650011347 643.961822629 164.621075328 645 128 645 c 2
 86 645 l 2
 53.9893035591 645 60 653.972787146 60 684 c 2
 60 718 l 2
 60 756.689441949 69.6100816318 750 106 750 c 2
 410 750 l 2
 429.646428902 750 440 755.665841858 440 734 c 2
 440 672 l 2
 440 643.283104189 437.997051439 645 410 645 c 2
 380 645 l 2
 347.504563589 645 347.902715851 645.068274706 351.477037037 616 c 6
 380.373333333 381 l 2
 385.14351629 342.206343427 387.643230476 307.85283142 392.142361099 261 c 0
 398 200 410.287315023 212.44277761 435.973170084 257 c 0
EndSplineSet
EndChar

StartChar: X
Encoding: 88 88 35
Width: 850
Flags: HMW
LayerCount: 2
Fore
SplineSet
132 750 m 6
 432 750 l 2
 468.155826413 750 485 759.745627135 485 720 c 2
 485 666 l 2
 485 639.63626702 476.653054103 645 452 645 c 2
 434 645 l 2
 391.630042804 645 411.140859355 633.393007509 424.376 612 c 2
 481.293333333 520 l 2
 505.541390071 480.805942773 504.699853001 479.446212087 538 510.146095718 c 2
 652 615.244332494 l 6
 684.367334068 645.084242491 674.698250261 645 636 645 c 4
 604.071524265 645 605 646.089125185 605 678 c 2
 605 726 l 2
 605 757.298082733 617.319479332 750 646 750 c 2
 884 750 l 2
 919.70785246 750 935 759.178435152 935 720 c 2
 935 686 l 2
 935 647.791634029 937.451276267 645 898 645 c 2
 858 645 l 2
 817.811278132 645 811.634351708 638.50669856 792 620.496240602 c 2
 590 435.203007519 l 2
 555.844033601 403.871970672 553.8889062 402.658017996 579.042666667 362 c 2
 713.912 144 l 2
 731.98120813 114.793305824 732.025781225 105 782 105 c 2
 816 105 l 2
 845.890778422 105 840 95.9878038693 840 68 c 2
 840 34 l 2
 840 -2.26745917561 837.345771259 0 802 0 c 2
 480 0 l 2
 441.222574671 0 440 -1.03377557254 440 38 c 2
 440 72 l 2
 440 107.722158282 443.249037647 105 478 105 c 0
 536.929201691 105 515.80379167 116.333673742 496.424 148 c 2
 431.552 254 l 2
 401.647446644 302.863649275 401.390901552 296.280038834 362 259.509174312 c 2
 236 141.889908257 l 2
 213.980126959 121.334659799 175.414756451 105 236 105 c 0
 266.093385418 105 280 113.074894319 280 80 c 2
 280 38 l 2
 280 5.23937676062 284.101868072 0 250 0 c 2
 -34 0 l 2
 -64.7593578313 0 -70 -4.04963514128 -70 28 c 2
 -70 66 l 2
 -70 99.1009644945 -74.5145272264 105 -40 105 c 2
 26 105 l 2
 65.7570658778 105 70.5446289637 116.970969094 90 135.243243243 c 2
 318 349.378378378 l 2
 351.186398525 380.546685101 353.291238628 381.877061065 328.736 422 c 2
 202.664 628 l 2
 191.916430205 645.561388554 185.086743686 645 156 645 c 2
 132 645 l 2
 90.8749035744 645 95 650.129401495 95 690 c 2
 95 724 l 2
 95 755.298924019 102.54319667 750 132 750 c 6
EndSplineSet
EndChar

StartChar: Y
Encoding: 89 89 36
Width: 810
Flags: HMW
LayerCount: 2
Fore
SplineSet
102 750 m 2
 408 750 l 2
 442.382502042 750 450 755.66412915 450 719 c 2
 450 681 l 2
 450 647.738033743 452.374351513 645 418 645 c 2
 380 645 l 2
 335.158052625 645 359.638709317 625.328125246 371.276442308 601 c 2
 407.632211538 525 l 2
 422.371529275 494.188159907 436.622806713 463.442230148 450.182442432 431 c 0
 468.603561772 386.926382861 468.277519506 394.238601677 492.710146074 429 c 0
 515.427858262 461.321512391 539.765330491 490.897230826 564.497652582 521 c 2
 641.727699531 615 l 2
 654.133554131 630.099697314 670.651351499 645 642 645 c 6
 614 645 l 2
 582.331390613 645 585 648.226563154 585 679 c 2
 585 719 l 2
 585 752.233589392 587.630946614 750 620 750 c 2
 864 750 l 2
 894.895369254 750 895 749.999735238 895 719 c 2
 895 689 l 2
 895 654.011366273 901.405402397 645 864 645 c 2
 828 645 l 2
 788.701799779 645 786.273636868 637.180687964 769.387755102 617 c 2
 538.448979592 341 l 2
 524.312972188 324.105747249 516.676034307 313.582650093 510.6 287 c 2
 477.228571429 141 l 2
 469.567611704 107.483301203 465.215353777 105 508 105 c 2
 558 105 l 2
 595.992195669 105 589 94.6629627036 589 59 c 2
 589 27 l 2
 589 -7.72570232427 576.334974556 0 544 0 c 2
 190 0 l 2
 151.240545006 0 154 3.26884159193 154 41 c 2
 154 73 l 2
 154 101.834960938 160.854666486 105 188 105 c 2
 252 105 l 2
 279.612067623 105 279.377329127 106.650814932 284.485714286 129 c 2
 313.285714286 255 l 2
 321.057824082 289.00298036 316.387065687 299.721222331 302.975 327 c 2
 165.308333333 607 l 2
 150.011957865 638.111272138 150.300328194 645 102 645 c 2
 84 645 l 2
 51.3259474579 645 60 661.261691777 60 691 c 2
 60 719 l 2
 60 755.527007289 67.5230923203 750 102 750 c 2
EndSplineSet
EndChar

StartChar: Z
Encoding: 90 90 37
Width: 745
Flags: HMW
LayerCount: 2
Fore
SplineSet
136 750 m 2
 720 750 l 2
 748.073022766 750 755 754.989124179 755 725 c 2
 755 669 l 2
 755 623.849700382 753.130065893 613.383616281 730 593.389830508 c 2
 214 147.355932203 l 2
 184.947501979 122.242755948 139.86623798 105 216 105 c 2
 405 105 l 2
 527.40073713 105 574.768046678 139.323801979 612 258.60616491 c 0
 620.363974843 285.402359944 614.551981665 305 654 305 c 2
 694 305 l 2
 733.696640815 305 723.241738844 294.274606951 718.114754098 263 c 2
 681.06557377 37 l 2
 675.423251497 2.58183413463 676.443018782 0 636 0 c 2
 -20 0 l 2
 -60.7502035912 0 -55 7.75424433575 -55 47 c 2
 -55 103 l 2
 -55 142.251301486 -43.9065481532 144.589254986 -24 161.796610169 c 2
 488 604.372881356 l 2
 524.234951654 635.694619226 553.638024142 645 472 645 c 2
 355 645 l 2
 235.498009903 645 187.517582484 612.282689414 153.98158306 513 c 0
 143.041199163 480.611201243 149.516393376 465 102 465 c 2
 70 465 l 2
 26.7706384329 465 43.8764511553 487.095771585 49.4736842105 519 c 2
 83.1578947368 711 l 2
 89.864113929 749.225449395 90.7474780816 750 136 750 c 2
EndSplineSet
EndChar

StartChar: a
Encoding: 97 97 38
Width: 739
VWidth: 1155
Flags: HMW
LayerCount: 2
Fore
SplineSet
628.160621762 486 m 2
 547 134 l 2
 545.599609375 128.094726562 544 119 544 114 c 0
 544 103 548 100 558 100 c 0
 578.420171106 100 598.616830663 118.656759154 624.105115121 156 c 0
 644.595731541 186.021087742 644.302193419 191.534925361 668 184.068493151 c 2
 692 176.506849315 l 2
 723.214469438 166.672153465 717.54295134 162.106848123 703.66725646 135.999994453 c 0
 646.498654246 28.4383663387 559.161466505 -20 476 -20 c 0
 423.926399118 -20 389.647898492 -4.55518154604 375.685298905 30 c 0
 365.33688896 55.6106452201 369.231788223 56.5141792618 344.00003738 34.3859689953 c 0
 305.724487527 0.818365204692 258.307832166 -20 202 -20 c 0
 93 -20 10 40 10 180 c 0
 10 410 173 539 312 539 c 0
 372.63613323 539 410.168643751 517.15200896 432.525810733 480.000003337 c 0
 445.421883173 458.569964539 453.571800734 432.465064275 459.916015625 476 c 2
 463.122009277 498 l 2
 466.211248884 519.198816567 468.05519505 520 494 520 c 2
 596 520 l 2
 637.376334408 520 635.952618213 519.794501462 628.160621762 486 c 2
418 320 m 0
 418 404 388 445 337 445 c 0
 263 445 190 334 190 190 c 0
 190 116 210 74 257 74 c 0
 338 74 418 206 418 320 c 0
EndSplineSet
EndChar

StartChar: b
Encoding: 98 98 39
Width: 634
VWidth: 1155
Flags: HMW
LayerCount: 2
Fore
SplineSet
191.174279977 109.999999298 m 0
 201.256070914 78.0422402512 216.417444861 65 244 65 c 0
 328 65 414 196 414 350 c 0
 414 414 408 453 364 453 c 0
 314.408120273 453 262.172483991 400.785808048 229.861009177 320.000004928 c 0
 222.184568853 300.807213506 216.232538259 280.332139359 211.103125 258 c 2
 191.35 172 l 2
 186.120348149 149.231447722 184.408106677 131.447749741 191.174279977 109.999999298 c 0
21.4393939394 170 m 6
 134.460606061 664 l 2
 141.059495232 692.842826842 144.829924294 695 108 695 c 2
 64 695 l 2
 37.9946119295 695 41 698.846725848 41 724 c 2
 41 754 l 2
 41 780.434652664 41.5386172807 780 68 780 c 2
 286 780 l 2
 333.679458229 780 330.71136563 778.743360566 321.8125 740 c 2
 268.525 508 l 2
 254.549217058 447.153053858 258.998463595 466.714651597 291.999994465 494.712135675 c 0
 325.889218404 523.462711258 364.70210953 539 407 539 c 0
 526 539 594 470 594 330 c 0
 594 140 451 -20 242 -20 c 0
 112.070613817 -20 56.1802846662 30.3465587817 24 90.2668054208 c 0
 8.87318689787 118.43319305 13.5646139498 135.580431833 21.4393939394 170 c 6
EndSplineSet
EndChar

StartChar: c
Encoding: 99 99 40
Width: 620
VWidth: 1155
Flags: HMW
LayerCount: 2
Fore
SplineSet
580 377 m 0
 580 299 521 270 467 270 c 0
 429 270 385 301 385 358 c 0
 385 416 444 424 444 441 c 0
 444 453 421 468 387 468 c 0
 296 468 195 354 195 190 c 0
 195 116 213 69 262 69 c 0
 316.856348273 69 361.856348273 102.359948002 397 150.594945763 c 0
 408.496212543 166.373607314 407.939530551 173 437 173 c 2
 482 173 l 6
 504.291678716 173 510.620601756 171.420667161 499 151.128850368 c 4
 449.66891696 64.9872442577 374.204675077 -20 235 -20 c 0
 136 -20 10 10 10 180 c 0
 10 410 186 540 367 540 c 0
 499 540 580 469 580 377 c 0
EndSplineSet
EndChar

StartChar: d
Encoding: 100 100 41
Width: 739
VWidth: 1155
Flags: HMW
LayerCount: 2
Fore
SplineSet
695.755417957 758 m 2
 547 134 l 2
 545.599609375 128.094726562 544 119 544 114 c 0
 544 103 548 100 558 100 c 0
 580.160384875 100 602.320769751 121.793609075 630.672882381 166 c 0
 642.766981366 184.857023975 642.275869325 192.17335624 668 184.068493151 c 2
 693 176.191780822 l 2
 725.987888573 165.798336477 715.276228525 157.050213776 701.000002502 131.064071214 c 0
 643.804926115 26.9553658338 557.878524875 -20 476 -20 c 0
 422.988519861 -20 387.505682347 -4.34942622774 375.00000142 31.9049158284 c 0
 366.775954627 55.7466728071 369.772460938 60.3369140625 351 41.6171875 c 0
 310.793945312 1.5234375 264.347150387 -20 202 -20 c 0
 93 -20 10 40 10 180 c 0
 10 410 173 539 312 539 c 0
 374.93152012 539 412.977129942 515.466584828 435 475.715387304 c 0
 454.465779454 440.57972869 451.393187957 440.429967389 460.911690849 480 c 2
 500.842703683 646 l 2
 508.181173045 676.507263092 518.533487209 685 477 685 c 2
 428 685 l 2
 395.758057985 685 393.076171875 682.677052779 393.076171875 716 c 2
 393.076171875 734 l 2
 393.076171875 767.994805938 385.403421561 780 422 780 c 2
 653 780 l 6
 683.537109375 780 702.255530489 785.266705816 695.755417957 758 c 2
418 320 m 0
 418 404 388 445 337 445 c 0
 263 445 190 334 190 190 c 0
 190 116 210 74 257 74 c 0
 338 74 418 206 418 320 c 0
EndSplineSet
EndChar

StartChar: e
Encoding: 101 101 42
Width: 590
VWidth: 1155
Flags: HMW
LayerCount: 2
Fore
SplineSet
399 433 m 0
 399 452 392 462 367 462 c 0
 319.346034885 462 253.089861148 410.486191505 216.656206812 318.000011909 c 0
 201.195422581 278.75308779 209.010041287 279.927111976 249.999996301 290.613331855 c 0
 335.494761187 312.90210616 399 360.589346288 399 433 c 0
190 170 m 0
 190 116 208 69 267 69 c 0
 309.705779611 69 369.292432812 100.813954075 405.999998859 141.94609496 c 0
 421.552985258 159.373772594 424.999023438 173 458 173 c 2
 488 173 l 6
 517.148434887 173 527.342842913 173.066353265 512 146.633481028 c 0
 462.122709169 60.7041611778 371.178316686 -20 216 -20 c 0
 85 -20 10 50 10 180 c 0
 10 410 181 540 382 540 c 0
 504 540 570 504 570 422 c 0
 570 278.24525099 360.79443398 230.163779123 220.000003006 216.628971321 c 0
 186.433095193 213.402127456 190 204.438906001 190 170 c 0
EndSplineSet
EndChar

StartChar: f
Encoding: 102 102 43
Width: 450
VWidth: 1155
Flags: HMW
LayerCount: 2
Fore
SplineSet
140.983379501 552 m 6
 145 572 l 2
 171.451967421 703.712555019 282 800 442 800 c 0
 583 800 660 731 660 664 c 0
 660 586 601 547 547 547 c 0
 499 547 452 578 452 635 c 0
 452 671 476 698 476 710 c 0
 476 716 461 720 444 720 c 0
 384 720 341.459077345 677.733476836 315 550 c 0
 309.772981257 524.766116413 303.731018693 520 336 520 c 2
 406 520 l 2
 437.668609387 520 435 516.773436846 435 486 c 2
 435 464 l 2
 435 437.671953164 437.257783734 435 410 435 c 2
 324 435 l 2
 294.90690772 435 291.510497978 436.602404032 286.414285714 412 c 2
 177.457142857 -114 l 2
 171.429247353 -143.100185195 175.037733702 -150 138 -150 c 2
 26 -150 l 6
 -0.171904261482 -150 2.0471453858 -139.806627803 7.22991689751 -114 c 2
 112.465373961 410 l 2
 117.928987466 437.205027246 115.434420598 435 84 435 c 0
 47.7697288633 435 45 432.579028062 45 470 c 2
 45 496 l 2
 45 523.444739655 49.497279643 520 76 520 c 2
 100 520 l 2
 136.087269946 520 135.098158581 522.695658592 140.983379501 552 c 6
EndSplineSet
EndChar

StartChar: g
Encoding: 103 103 44
Width: 609
VWidth: 1155
Flags: HMW
LayerCount: 2
Fore
SplineSet
84.8590439349 -34.9999984491 m 0
 73.2467199451 -53.3491406382 70 -73.0804103123 70 -92 c 0
 70 -158 105 -175 171 -175 c 0
 255 -175 379 -142 379 -67 c 0
 379 -33 335 -19 290 -19 c 0
 269 -19 208 -19 186 -19 c 0
 166.594746063 -19 147.700875174 -18.0237232732 130.000002703 -15.7704571561 c 0
 102.727503478 -12.2987526664 96.5631018622 -16.5059034437 84.8590439349 -34.9999984491 c 0
225 290 m 0
 225 246 235 225 264 225 c 0
 333 225 373 321 373 415 c 0
 373 459 363 475 334 475 c 0
 265 475 225 384 225 290 c 0
50 295 m 0
 50 421.138475433 175.216076505 533.154836974 347.999992144 539.698217128 c 0
 372.043874092 540.60876635 369.229400219 543.97085064 375.687995478 561.999997987 c 0
 400.168680676 630.337749916 457.241722681 697 530 697 c 0
 611 697 654 653 654 601 c 0
 654 547 621 516 571 516 c 0
 523 516 490 540 490 585 c 0
 490 603 504.071289062 623 497 623 c 0
 481.066244015 623 456.317051231 596.553689605 441.480824162 558.000001988 c 0
 430.830655395 530.324281078 439.926941342 533.866406243 464.00000194 524.772353318 c 0
 522.741652744 502.581586209 548 457.130813425 548 395 c 0
 548 255 405 160 264 160 c 0
 239.970482803 160 216.31588173 161.17161289 194.000003179 164.123558501 c 0
 175.51774842 166.56839215 162.44497676 171.481983186 151.048553997 160 c 0
 147.177521004 156.099904622 145 151.464718216 145 146 c 0
 145 129 157 119 202 119 c 0
 227 119 315 120 343 120 c 0
 448 120 520 74 520 -32 c 0
 520 -183 320 -260 150 -260 c 0
 27 -260 -75 -240 -75 -145 c 0
 -75 -87.8686478389 -23.7599466286 -34.6788382448 25.5169555671 -3.00000155655 c 0
 52.9300699931 14.6231755574 45.1916540919 7.76335965653 29.4085282859 31 c 4
 21.4379801376 42.7346058656 17 56.9347903567 17 74 c 0
 17 121.317442704 49.7639655544 152.00775029 96.9999972049 174.187908848 c 0
 115.887699907 183.056821543 115.247294024 181.55463687 97.3795659493 197 c 0
 70.2904859796 220.416557228 50 248.847150657 50 295 c 0
EndSplineSet
EndChar

StartChar: h
Encoding: 104 104 45
Width: 736
VWidth: 1155
Flags: HMW
LayerCount: 2
Fore
SplineSet
125 695 m 2
 106 695 l 2
 71.2907732653 695 74 698.242948261 74 732 c 2
 74 757 l 2
 74 786.155810817 83.7809773171 780 111 780 c 2
 298 780 l 2
 350.491539785 780 348.990693477 779.959446436 339.132051282 737 c 2
 275.793589744 461 l 2
 258.864035639 387.228758651 277.6171875 423.915039062 313 458.84765625 c 4
 363.234375 508.44140625 420.520853382 539 491 539 c 0
 580 539 640 481 602 341 c 1
 541 130 l 2
 539.599609375 124.094726562 539 120 539 115 c 0
 539 104 542 100 553 100 c 0
 574.308289744 100 594.837319193 122.100486688 624.070743163 161 c 0
 644.407964486 188.061763698 643.223032377 190.619868315 663 184.472972973 c 2
 691 175.77027027 l 2
 722.90975199 165.852374382 712.123266715 157.856876016 698.000003506 133.271080563 c 0
 641.529027911 34.9663308413 558.806155929 -20 468 -20 c 0
 401 -20 365 13 365 63 c 0
 365 82 367.729492188 99.865234375 372 115 c 2
 432.076171875 330 l 1
 451.076171875 394 453 433 417 433 c 0
 354.786360027 433 262.628077532 320.899543381 219.914785834 203.000003569 c 0
 212.695720081 183.073547511 207.72805082 164.401562232 202.816666667 143 c 2
 178.95 39 l 2
 171.5785513 6.87860343231 174.872066096 0 134 0 c 2
 46 0 l 2
 -6.4853515625 0 -0.47046950476 -2.0500905794 14.4576923077 63 c 2
 151.920512821 662 l 2
 158.814325191 692.040076253 163.553779028 695 125 695 c 2
EndSplineSet
EndChar

StartChar: i
Encoding: 105 105 46
Width: 416
VWidth: 1155
Flags: HMW
LayerCount: 2
Fore
SplineSet
156 700 m 0
 156 757 201 795 256 795 c 0
 311 795 356 757 356 700 c 0
 356 643 311 605 256 605 c 0
 201 605 156 643 156 700 c 0
301.702072539 471 m 6
 224 134 l 2
 222.599609375 128.094726562 221 119 221 114 c 0
 221 103 225 100 235 100 c 0
 256.308289744 100 277.616579489 120.149846679 304.429468866 161 c 0
 317.265522356 180.556070431 319.862329115 191.988581238 345 184.068493151 c 2
 371 175.876712329 l 2
 395.000212 168.315001699 390.999809903 154.428910863 377.000002518 129.254906656 c 0
 319.806412155 26.4112285333 234.402722089 -20 153 -20 c 0
 86 -20 47 5 47 65 c 0
 47 84 51.4482421875 104.684570312 55 120 c 2
 119.179272461 405 l 2
 126.056460862 435.539434606 126.303754154 435 89 435 c 2
 53 435 l 2
 15.5233685519 435 20 440.773830428 20 477 c 2
 20 501 l 2
 20 528.781172665 40.1971257498 520 65 520 c 2
 273 520 l 2
 323.536381682 520 310.366686151 508.579110724 301.702072539 471 c 6
EndSplineSet
EndChar

StartChar: j
Encoding: 106 106 47
Width: 409
VWidth: 1155
Flags: HMW
LayerCount: 2
Fore
SplineSet
237.448163428 -37.9999952429 m 0
 199.117663572 -161.739608844 126.390404986 -260 -19 -260 c 0
 -160 -260 -237 -191 -237 -124 c 0
 -237 -46 -178 -7 -124 -7 c 0
 -76 -7 -29 -38 -29 -95 c 0
 -29 -120.017603628 -38.0361328125 -146.086914062 -49.662109375 -157 c 4
 -66.8251953125 -173.111328125 -51.5588654514 -180 -21 -180 c 0
 60.8678331172 -180 73.2298963157 -50.9178558652 97.3760006295 67.9999968366 c 0
 119.292435518 175.936885618 145.074573637 282.689217275 169.007194245 390 c 0
 175.773286196 420.338283264 190.280989675 435 148 435 c 2
 108 435 l 2
 79.9269772344 435 73 430.010875821 73 460 c 2
 73 490 l 2
 73 517.914540858 71.1728547451 520 100 520 c 2
 330 520 l 2
 369.109164636 520 367.994555507 519.976407196 360.615384615 488 c 2
 254.923076923 30 l 2
 249.543535357 6.68865321394 244.216439526 -16.1504531746 237.448163428 -37.9999952429 c 0
209 700 m 0
 209 757 254 795 309 795 c 0
 364 795 409 757 409 700 c 0
 409 643 364 605 309 605 c 0
 254 605 209 643 209 700 c 0
EndSplineSet
EndChar

StartChar: k
Encoding: 107 107 48
Width: 689
VWidth: 1155
Flags: HMW
LayerCount: 2
Fore
SplineSet
646.000002256 139.705035244 m 4
 590.195176334 29.5500656316 500.034653738 -20 415 -20 c 0
 347.6953125 -20 311.005859375 3.5537109375 311.005859375 63.38671875 c 0
 311.005859375 68.5849609375 312.287109375 79.056640625 313 85 c 2
 322 160 l 2
 324.807035481 183.391704007 327.748148294 208.373269967 325.651800235 229.999998651 c 0
 323.155025281 255.757684382 313.940855107 241.721771768 297 236.780289568 c 0
 286.129990455 233.609613806 274.495763906 232 262 232 c 0
 249.574562599 232 238.619228697 234.878952687 228.99999977 239.907906081 c 0
 214.379236675 247.551672202 216.723215082 245.800598687 212.384615385 227 c 2
 169.230769231 40 l 2
 160.572740776 2.48187669388 160.683364616 0 114 0 c 2
 22 0 l 2
 -16.9150739903 0 -8.44158761741 6.75312032457 -1.69230769231 36 c 2
 144.153846154 668 l 2
 150.812175517 696.852760575 148.998161951 695 114 695 c 2
 100 695 l 2
 68.9488628184 695 65 691.775376022 65 724 c 2
 65 756 l 2
 65 780.440672611 65.5393485682 780 90 780 c 2
 308 780 l 2
 344.445077537 780 339.176293106 776.430603461 332.615384615 748 c 2
 247.538085938 380 l 2
 242.055664062 356.239257812 237.43359375 348.697265625 259 354.578125 c 0
 273.706054688 358.587890625 290.84658285 361.06626221 306.9999892 358.411743147 c 0
 327.290765303 355.077322479 330.673304392 356.4556976 338.349271017 375 c 0
 341.168674234 381.811372224 344.044377783 389.134858264 347 397 c 0
 379.244140625 482.8046875 418 540 508 540 c 0
 569 540 652 506 652 424 c 0
 652 370 609 329 559 329 c 0
 511 329 471 363 471 408 c 0
 471 440 494 455 494 466 c 0
 494 474 488 475 483 475 c 0
 463 475 437.544921875 457.71484375 408 375 c 0
 406.042098846 369.518640738 404.049327586 364.184719665 402.018124876 359.00001349 c 0
 393.096444591 336.227155507 397.056730311 339.453172283 415.999992998 327.806351576 c 0
 470.655003878 294.203000187 497.314530756 234.142277039 489 151 c 1
 485 122 l 2
 484.49609375 119.731445312 484.225585938 115.548828125 484.225585938 113.536132812 c 0
 484.225585938 103.141601562 488.619140625 100 500 100 c 0
 512.152680678 100 532.838425444 109.845843178 563.12081997 154 c 0
 577.483392896 174.941781761 578.162059285 193.46948817 610 183.438356164 c 2
 640 173.98630137 l 2
 664.424340258 166.290961289 656.003339713 159.450949963 646.000002256 139.705035244 c 4
EndSplineSet
EndChar

StartChar: l
Encoding: 108 108 49
Width: 379
VWidth: 1155
Flags: HMW
LayerCount: 2
Fore
SplineSet
324.095703125 751 m 2
 187 134 l 2
 185.599609375 128.094726562 184 119 184 114 c 0
 184 103 188 100 198 100 c 0
 219.481450224 100 240.962900448 120.478670284 268.084242164 162 c 0
 279.106370038 178.874290751 279.826155835 192.945183778 304 185.328767123 c 2
 330 177.136986301 l 2
 360.998039574 167.370480682 358.90940054 165.143816005 345.000002437 138.528734212 c 4
 287.861906093 29.1972522558 199.810381829 -20 116 -20 c 0
 49 -20 10 5 10 65 c 0
 10 84 14.4482421875 104.684570312 18 120 c 2
 135.37981179 654 l 2
 141.585956759 682.233827973 145.937076212 685 110 685 c 2
 68 685 l 2
 38.6408242296 685 38 684.479074942 38 714 c 2
 38 758 l 2
 38 782.984420965 41.849220285 780 66 780 c 2
 292 780 l 2
 322.563712041 780 330.265625 778.677734375 324.095703125 751 c 2
EndSplineSet
EndChar

StartChar: m
Encoding: 109 109 50
Width: 1071
VWidth: 1155
Flags: HMW
LayerCount: 2
Fore
SplineSet
568.845454545 153 m 1
 560.660606061 116 l 0
 543.848484848 40 l 2
 536.818162142 8.21908913546 540.920673293 0 500 0 c 2
 396 0 l 2
 355.739845838 0 354.89373801 -0.422487431571 366.56969697 46 c 2
 438 330 l 2
 456 404 465 441 423 441 c 0
 371.73856822 441 285.167617652 332.246682135 240.43539207 218.000003454 c 0
 233.768799047 200.973439247 228.031483296 183.824862351 223.478818626 166.896080787 c 1
 214.972222222 130 l 0
 195.605555556 46 l 2
 183.001175472 -8.66960036322 184.302734375 0 138 0 c 2
 46 0 l 2
 4.90172603511 0 17.8459373611 12.3323952314 24.6923076923 42 c 2
 109.153846154 408 l 2
 114.716375223 432.104292634 119.093169554 435 88 435 c 2
 54 435 l 2
 30.622669196 435 30 434.481078932 30 458 c 2
 30 496 l 2
 30 523.025428073 33.8452490466 520 60 520 c 2
 248 520 l 6
 278.705078125 520 297.491167427 524.238997152 289.6375 498 c 2
 273.474609375 444 l 2
 251.385201757 370.199586508 269.656871891 400.75517433 300.000433736 439.999995336 c 0
 346.487403773 500.123880185 406.938224573 534 476 534 c 0
 543.83330639 534 582.919921875 508.655273438 594.375976562 445 c 0
 603.731445312 393.013671875 594.951521624 382.941430795 625.999992218 426.160629538 c 0
 674.047704545 493.042623675 731.509757854 534 796 534 c 0
 905 534 977 480 937 341 c 2
 876 130 l 2
 874.599609375 124.094726562 874 120 874 115 c 0
 874 104 877 100 888 100 c 0
 908.237808644 100 930.293230744 118.176134559 955.109458949 155 c 0
 966.18537469 171.435133797 969.06001075 193.467834496 994 185.716216216 c 2
 1022 177.013513514 l 2
 1054.38241738 166.948708113 1050.1291507 163.734957043 1035.1177964 137.000012408 c 0
 978.608146185 36.3573695103 894.947997321 -20 803 -20 c 0
 736 -20 700 13 700 63 c 0
 700 82 702.729492188 99.865234375 707 115 c 2
 767.076171875 330 l 2
 792.076171875 414 789 441 753 441 c 0
 691.943729174 441 622.752852065 327.115512022 584.855615674 210.000003461 c 0
 578.68360664 190.926370508 573.341628231 171.76703816 569 153 c 1
 568.845454545 153 l 1
EndSplineSet
EndChar

StartChar: n
Encoding: 110 110 51
Width: 751
VWidth: 1155
Flags: HMW
LayerCount: 2
Fore
SplineSet
86 435 m 2
 58 435 l 2
 30.0945051903 435 30 435.00023914 30 463 c 2
 30 499 l 2
 30 526.987966616 42.4366222382 520 68 520 c 2
 258 520 l 2
 296.394717313 520 295.754726468 515.423186071 285.98125 483 c 2
 270.306640625 431 l 2
 247.093426726 353.990927948 273.088867188 395.1015625 302 432.5625 c 0
 352.821289062 498.4140625 423.413195286 539 506 539 c 0
 595 539 657.170577505 479.950686124 617 341 c 2
 556 130 l 2
 554.599609375 124.094726562 554 120 554 115 c 0
 554 104 557 100 568 100 c 0
 589.992643276 100 614.131779267 121.464927143 641.627845115 165 c 0
 650.801943209 179.525533621 655.358398438 190.75390625 676 184.337890625 c 2
 706 175.77027027 l 6
 725.545095474 170.188438343 731.656139765 167.84504057 720.000003356 145.932819751 c 0
 663.488736472 39.698016451 577.633928269 -20 483 -20 c 0
 416 -20 380 13 380 63 c 0
 380 82 382.729492188 99.865234375 387 115 c 2
 447.076171875 330 l 2
 465.040197976 394.289476028 468 433 432 433 c 0
 371.195302613 433 281.786907993 325.919492411 237.891905421 211.000003559 c 0
 227.817458191 184.62455628 221.509554164 158.354692761 214.741666667 129 c 2
 197.680555556 55 l 2
 189.542024663 19.700347938 187.651282411 -4.61095224879e-15 150 0 c 2
 50 0 l 2
 11.5376078589 0 14.8784388139 -0.526765139889 27.2307692308 53 c 6
 107.538461538 401 l 2
 113.770693241 428.006337376 122.341715151 435 86 435 c 2
EndSplineSet
EndChar

StartChar: o
Encoding: 111 111 52
Width: 648
VWidth: 1155
Flags: HMW
LayerCount: 2
Fore
SplineSet
195 170 m 0
 195 106 210 70 259 70 c 0
 348 70 423 196 423 350 c 0
 423 414 408 450 359 450 c 0
 270 450 195 324 195 170 c 0
10 180 m 0
 10 390 168 540 379 540 c 0
 530 540 608 460 608 340 c 0
 608 130 450 -20 239 -20 c 0
 88 -20 10 60 10 180 c 0
EndSplineSet
EndChar

StartChar: p
Encoding: 112 112 53
Width: 676
VWidth: 1155
Flags: HMW
LayerCount: 2
Fore
SplineSet
184.952820122 22 m 2
 132.110708841 -210 l 2
 126.024017182 -236.723240815 131.208435079 -250 96 -250 c 2
 -8 -250 l 2
 -44.1398781424 -250 -47.6785234075 -252.968539908 -40.6 -222 c 2
 102.028571429 402 l 2
 108.523265927 430.414288433 114.855610341 435 78 435 c 2
 52 435 l 2
 23.5714692983 435 24 435.53799156 24 464 c 2
 24 500 l 2
 24 525.296303358 32.3749811086 520 56 520 c 2
 258 520 l 2
 294.408243084 520 287.453263308 510.561372135 283.492344799 496 c 4
 273.407550288 458.925658419 270.366846353 455.203455506 295.999963581 479.178724408 c 0
 335.281657889 515.919834576 384.712251953 539 444 539 c 0
 553 539 636 479 636 339 c 0
 636 109 473 -20 334 -20 c 0
 275.591430279 -20 236.318855495 -1.12372716734 216 34.9677711902 c 0
 201.950337809 59.9235744343 197.71176724 78.0173630404 184.952820122 22 c 2
228 199 m 0
 228 115 258 74 309 74 c 0
 383 74 456 185 456 329 c 0
 456 403 436 445 389 445 c 0
 308 445 228 313 228 199 c 0
EndSplineSet
EndChar

StartChar: q
Encoding: 113 113 54
Width: 626
VWidth: 1155
Flags: HMW
LayerCount: 2
Fore
SplineSet
497 520 m 2
 608 520 l 2
 641.019459263 520 634.948522706 515.476885382 629.025974026 490 c 2
 483.966233766 -134 l 2
 478.628253566 -156.962261197 469.657945405 -165 501 -165 c 2
 532 -165 l 2
 552.481020797 -165 562 -159.486757974 562 -182 c 2
 562 -228 l 2
 562 -249.925745922 561.999812104 -250 540 -250 c 2
 329 -250 l 2
 288.869408904 -250 286.456664582 -252.337241926 294.206527385 -219 c 2
 347.209373961 9 l 2
 355.009518547 42.5535368472 348.1640625 41.71875 325 22.2490234375 c 4
 291.180664062 -6.177734375 251.168198161 -20 202 -20 c 0
 93 -20 10 40 10 180 c 0
 10 410 173 539 312 539 c 0
 383.782952209 539 423.830300876 508.633841109 443.366401023 458.000003862 c 0
 453.808218278 430.936809493 457.304343316 428.237678018 463.586914062 461 c 2
 469.723300366 493 l 2
 475.40759068 522.642411846 480.165313647 520 497 520 c 2
418 320 m 0
 418 404 388 445 337 445 c 0
 263 445 190 334 190 190 c 0
 190 116 210 74 257 74 c 0
 338 74 418 206 418 320 c 0
EndSplineSet
EndChar

StartChar: r
Encoding: 114 114 55
Width: 588
VWidth: 1155
Flags: HMW
LayerCount: 2
Fore
SplineSet
598 431 m 0
 598 359 561 305 481 305 c 0
 427 305 390 338 390 389 c 0
 390 433 395 433 395 440 c 0
 395 444 394 448 385 448 c 0
 347.892730417 448 262 333 229.548284879 193.042376227 c 2
 192.846161633 34 l 2
 185.978498519 4.24015604181 187.836225865 0 150 0 c 2
 44 0 l 2
 1.35808335959 0 20.1717740395 22.411020838 27 52 c 6
 107.769230769 402 l 2
 113.940521939 428.742261735 121.857884187 435 86 435 c 2
 55 435 l 2
 29.5623231185 435 30 435.538968167 30 461 c 2
 30 499 l 2
 30 527.259745137 43.2287135479 520 69 520 c 2
 251 520 l 2
 291.366844496 520 283.645511526 514.130549947 276.461538462 483 c 2
 269.384765625 461 l 2
 250.748444915 403.06412088 255.664655011 398.331727023 285 444.401260251 c 0
 320.994303014 500.928317947 385.380343776 543 467 543 c 0
 556 543 598 489 598 431 c 0
EndSplineSet
EndChar

StartChar: s
Encoding: 115 115 56
Width: 556
VWidth: 1155
Flags: HMW
LayerCount: 2
Fore
SplineSet
321 130 m 0
 321 207 83 234 83 380 c 0
 83 479 193 542 346 542 c 0
 484 542 546 467 546 411 c 0
 546 351 509 312 447 312 c 0
 400 312 364 345 364 390 c 0
 364 439 398 440 398 450 c 0
 398 458 368 472 326 472 c 0
 283 472 249 452 249 416 c 0
 249 316 504 302 504 139 c 0
 504 35 384 -22 217 -22 c 0
 78 -22 -10 46 -10 116 c 0
 -10 189 39 231 94 231 c 0
 147 231 181 209 181 162 c 0
 181 109 135 105 135 90 c 0
 135 71 162 58 209 58 c 0
 279 58 321 89 321 130 c 0
EndSplineSet
EndChar

StartChar: t
Encoding: 116 116 57
Width: 420
VWidth: 1155
Flags: HMW
LayerCount: 2
Fore
SplineSet
70 435 m 2
 44 435 l 2
 18.9304522481 435 15.001953125 431.911866492 15.001953125 458 c 2
 15.001953125 492 l 2
 15.001953125 512.216729823 10.1839775162 520 32 520 c 2
 90 520 l 2
 120.40479615 520 116.687207475 528.567348978 122.177142857 552 c 2
 132.017142857 594 l 2
 136.798548605 614.408439167 144.18344099 610.289486044 166 612.364789785 c 0
 212.375778809 616.776293325 239.371938558 631.027586354 254.000000104 642.443996555 c 0
 273.701276711 657.819776491 268.381987218 658 284 658 c 6
 298 658 l 2
 320.378766238 658 316.264633465 655.041432311 312.028901734 638 c 2
 288.664739884 544 l 2
 284.581887333 527.573639736 283.5859375 520 307 520 c 2
 370 520 l 2
 394.461263893 520 400.001953125 524.093593337 400.001953125 498 c 2
 400.001953125 464 l 2
 400.001953125 435.636665567 400.521603128 435 372 435 c 2
 288 435 l 2
 265.323716932 435 261.940890685 436.483118338 257.346820809 418 c 2
 188 139 l 2
 185.051757812 126.994140625 184 123 184 114 c 0
 184 103 189 95 202 95 c 0
 224.045095482 95 245.371276415 120.162009198 270.855016604 164.999994564 c 0
 282.623090256 185.705617453 281.91644466 191.711589694 310 185.230769231 c 2
 332 180.153846154 l 2
 362.299935422 173.161553364 364.110691948 173.29749982 352 146.678171124 c 4
 304.562471662 42.4103749684 226.879968699 -20 115 -20 c 0
 48 -20 10 8 10 58 c 0
 10 66 10.880859375 77.0283203125 13 86 c 2
 87.5028571429 404 l 2
 92.9578478936 427.283497107 101.753328311 435 70 435 c 2
EndSplineSet
Substitution2: "'ss01' Style Set 1 lookup 2-1" uniFFF0
EndChar

StartChar: u
Encoding: 117 117 58
Width: 826
VWidth: 1155
Flags: HMW
LayerCount: 2
Fore
SplineSet
717.005181347 494 m 2
 634 134 l 2
 632.599609375 128.094726562 631 119 631 114 c 0
 631 103 635 100 645 100 c 0
 666.65320733 100 688.30641466 120.807458033 715.735881 163 c 0
 728.749782353 183.018237765 728.303348028 192.47976706 756 183.753424658 c 2
 782 175.561643836 l 2
 812.090659008 166.081025244 802.86620931 158.755882644 790.00000247 134.749805266 c 4
 732.820523198 28.0629611208 645.83858224 -20 563 -20 c 0
 496 -20 467 5 467 65 c 0
 467 84 470.790747882 105.166218876 476 120 c 0
 486.245117188 149.173828125 471.889648438 133.268554688 462 117.659179688 c 0
 407.5546875 31.720703125 329.572962443 -19 235 -19 c 0
 146 -19 84 40 124 179 c 2
 185 390 l 2
 186.400390625 395.905273438 187 400 187 405 c 0
 187 416 184 420 173 420 c 0
 151.17640565 420 127.239190277 398.863789777 100.005615221 356 c 0
 86.9864695682 335.508752663 88.0019979119 327.756135784 60 336.459459459 c 2
 32 345.162162162 l 2
 3.67269525585 353.966594718 13.6780770363 361.292570319 25.9999965359 383.209640556 c 0
 82.508077343 483.720894183 166.115869126 540 258 540 c 0
 325 540 361 507 361 457 c 0
 361 438 358.270507812 420.134765625 354 405 c 2
 293.923828125 190 l 2
 274.923828125 126 273 87 309 87 c 0
 377.458673144 87 488 221 517.372995282 352.572202485 c 2
 547.870070685 488 l 2
 553.97761306 515.121650232 551.643507226 520 586 520 c 2
 692 520 l 2
 723.8304192 520 723.010035929 520.043526612 717.005181347 494 c 2
EndSplineSet
EndChar

StartChar: v
Encoding: 118 118 59
Width: 606
VWidth: 1155
Flags: HMW
LayerCount: 2
Fore
SplineSet
415 362 m 0
 360 362 331 390 331 448 c 0
 331 508 390 539 454 539 c 0
 514 539 596 490 596 379 c 0
 596 203.108138607 443.29834487 136.428229421 133 -11.4995830945 c 0
 116.685006114 -19.2773924082 112.635267944 -23.1420918973 98 -12.9206349206 c 2
 60 13.619047619 l 2
 46.3508358442 23.1517971882 47.7612960291 26.5176900144 53.4535387893 46.9999983105 c 0
 59.1151996613 67.3722642757 67 92.7585085686 67 120 c 0
 67 217 10 289 10 383 c 0
 10 454.42488148 69.7833636072 480.414406619 167.999992521 523.595530432 c 0
 190.716453406 533.582864766 203.533124443 540.160361099 216.228070175 524 c 2
 230.368164062 506 l 2
 244.831054688 485.389648438 242.502581 484.641327775 224.666369645 469 c 0
 208.817734086 455.101661467 195 433.719462022 195 400 c 0
 195 307 244 291 244 147 c 0
 244 127.350281788 239.73931577 121.811506928 256.999985699 131.083981394 c 0
 414.539849725 215.714784976 507.000000004 280.544567893 507 373 c 0
 507 395 501 408 491 408 c 4
 471 408 467 362 415 362 c 0
EndSplineSet
EndChar

StartChar: w
Encoding: 119 119 60
Width: 1019
VWidth: 1155
Flags: HMW
LayerCount: 2
Fore
SplineSet
560 520 m 2
 674 520 l 2
 721.231854661 520 715.082339223 516.003345828 706.586102719 479 c 2
 640 189 l 2
 620 105 628 68 692 68 c 0
 824 68 906 280 906 378 c 0
 906 384 905 387 902 387 c 0
 891 387 892 367 850 367 c 0
 805 367 772 395 772 443 c 0
 772 503 831 534 885 534 c 0
 943 534 999 480 999 399 c 0
 999 259 903 -20 678 -20 c 0
 609.753521312 -20 515.236328125 -7.59375 483 82.302734375 c 4
 464.309570312 134.424804688 462.622070312 118.13671875 427 72.7998046875 c 4
 380.672851562 13.8369140625 322.604719145 -19 245 -19 c 0
 156 -19 94 40 134 179 c 2
 195 390 l 2
 196.400390625 395.905273438 197 400 197 405 c 0
 197 416 194 420 183 420 c 0
 161.691710256 420 138.368435843 399.850153321 111.929256837 359 c 0
 98.3011128961 337.943681674 99.2709094015 327.361744375 70 336.459459459 c 2
 40 345.783783784 l 2
 11.8819002124 354.523193177 26.1743600589 366.14283574 37.9999964939 386.728919437 c 0
 94.4709720894 485.033669159 177.193844071 540 268 540 c 0
 335 540 371 507 371 457 c 0
 371 438 368.270507812 420.134765625 364 405 c 2
 303.923828125 190 l 2
 284.923828125 126 283 87 319 87 c 0
 388.068319431 87 467 225 495.523147939 356.039413446 c 2
 525.157894737 493 l 2
 530.433862895 517.383528513 529.392188947 520 560 520 c 2
EndSplineSet
EndChar

StartChar: x
Encoding: 120 120 61
Width: 721
VWidth: 1155
Flags: HMW
LayerCount: 2
Fore
SplineSet
604.2156551 124.000002701 m 4
 566.294677122 46.183610748 495.662639456 -20 414 -20 c 0
 316.6953125 -20 290.8203125 25.2294921875 278.005859375 73.38671875 c 0
 266.506091228 116.603652558 270.253710718 121.085823545 246 86.0888491062 c 0
 205.184773574 27.1943792029 152.511015826 -20 79 -20 c 0
 -22 -20 -70 44 -70 116 c 0
 -70 170 -27 221 23 221 c 0
 81 221 111 182 111 137 c 0
 111 85 77 80 77 64 c 0
 77 54 84 52 96 52 c 0
 132.424200389 52 176.219000879 105.582902897 215.602981666 168.999997779 c 0
 240.076650411 208.408126206 243.541764851 224.396400247 231.313352531 276.999997135 c 0
 220.740218856 322.482995836 210.05417274 364.199298802 199.774414062 392.463867188 c 0
 195.879882812 403.171875 187.380859375 420 171 420 c 0
 155.283059448 420 139.566118895 407.676896038 121.333834286 378 c 0
 106.978452158 354.633582016 108.732541413 339.029761141 78 352.588235294 c 2
 56 362.294117647 l 2
 29.3617315316 374.046294913 36.1243159557 380.660146362 48.3831415884 405.999997188 c 0
 84.7686952471 481.211483961 147.08685974 542 236 542 c 0
 333.3046875 542 355.1796875 496.770507812 367.994140625 448.61328125 c 0
 369.758458408 441.983085338 371.505032015 435.100577448 373.240952451 428.000003144 c 0
 387.544730407 369.492115294 388.185077279 394.622947713 413 431.002177717 c 0
 454.091906455 491.243828798 507.282543057 540 582 540 c 0
 683 540 731 476 731 404 c 0
 731 350 688 299 638 299 c 0
 580 299 550 338 550 383 c 0
 550 435 584 440 584 456 c 0
 584 466 577 468 565 468 c 0
 524.238331014 468 474.246130472 400.895738572 431.534780376 328.000002289 c 0
 409.839141875 290.971916333 405.892033004 276.734428508 417.758804857 228.000003779 c 0
 426.77892142 190.95621486 436.72983534 155.146436268 448.225585938 123.536132812 c 0
 452.120117188 112.828125 462.619140625 98 478 98 c 0
 497.670896301 98 519.357126775 120.168675906 542.508088234 158.999995839 c 0
 553.876045438 178.067574694 552.93536379 189.832762626 575 177.491525424 c 2
 598 164.627118644 l 2
 620.156536298 152.234479698 615.50773291 147.172104257 604.2156551 124.000002701 c 4
EndSplineSet
EndChar

StartChar: y
Encoding: 121 121 62
Width: 763
VWidth: 1155
Flags: HMW
LayerCount: 2
Fore
SplineSet
594 373 m 0
 549 373 516 401 516 449 c 0
 516 509 575 540 629 540 c 0
 687 540 743 486 743 405 c 0
 743 185 405 -265 120 -265 c 0
 -27 -265 -90 -173 -90 -86 c 0
 -90 -30 -51 37 28 37 c 0
 83 37 113 4 113 -47 c 0
 113 -118 46 -120 46 -140 c 0
 46 -163 76 -183 119 -183 c 0
 166.848617391 -183 220.147916741 -163.18396933 273.99999487 -130.45036317 c 0
 311.883820314 -107.422946866 301.739880096 -104.943031665 285.035342798 -65.0000034529 c 0
 221.675245013 86.5033951803 218.773889858 333.891937666 194.774414062 397.463867188 c 0
 190.75 408.124023438 187.380859375 420 170 420 c 0
 150.635941343 420 128.667946799 397.215560992 102.520304892 359.0000032 c 0
 90.2353498548 341.045175346 89.3175863743 326.80639362 64 335.597222222 c 2
 40 343.930555556 l 2
 8.84598625489 354.747921439 11.4621163817 356.559842166 26 383.380054399 c 0
 77.0891719416 477.631904959 143.340874168 542 236 542 c 0
 323.3046875 542 359.706054688 495.353515625 373.994140625 447.61328125 c 0
 395.370959031 376.188995712 392.834549093 213.044183509 437.910960822 75.0000043722 c 0
 456.769656234 17.2462252251 462.190163447 30.0177031897 494.05339612 68.9999954295 c 4
 584.938328858 180.190942206 650 303.612732249 650 384 c 0
 650 390 649 393 646 393 c 0
 635 393 636 373 594 373 c 0
EndSplineSet
EndChar

StartChar: z
Encoding: 122 122 63
Width: 605
VWidth: 1155
Flags: HMW
LayerCount: 2
Fore
SplineSet
2 409.231445312 m 4
 55.341796875 467.654296875 127.647460938 540 202 540 c 4
 305.813476562 540 362.2421875 471 418 471 c 4
 451.274414062 471 494.159179688 491.182617188 528 510.89453125 c 4
 554.391601562 526.267578125 560.637695312 541.875 578.48046875 519 c 6
 587.83984375 507 l 6
 604.596679688 485.517578125 605.383789062 485.305664062 584 468.23828125 c 6
 207 167.330078125 l 6
 173.09375 140.267578125 173.993164062 136.220703125 216 153.96484375 c 4
 246.614257812 166.896484375 272.6640625 172 292 172 c 4
 365.813476562 172 385.2421875 140 421 140 c 4
 451.713867188 140 472.266601562 154.973632812 494 181.400390625 c 4
 509.493164062 200.240234375 512.16015625 220.078125 536 202.37890625 c 6
 560 184.560546875 l 6
 584.317382812 166.506835938 585.966796875 166.483398438 568 140.159179688 c 4
 520.999023438 71.298828125 442.837890625 -20 328 -20 c 4
 254.186523438 -20 167.7578125 39 122 39 c 4
 88.6513671875 39 40.8232421875 23.5537109375 4 6.7470703125 c 4
 -22.751953125 -5.4638671875 -30.76953125 -21.5390625 -47.2001953125 -1 c 6
 -64.7998046875 21 l 6
 -85.806640625 47.2587890625 -65.8759765625 51.2470703125 -42 70.2587890625 c 6
 317 356.129882812 l 6
 349.71875 382.18359375 335.640625 385.5703125 310 366.323242188 c 4
 300.095703125 358.888671875 279.2734375 355 268 355 c 4
 204.186523438 355 198.7578125 393 143 393 c 4
 113.194335938 393 85.849609375 375.7734375 60 350.971679688 c 4
 37.1103515625 329.010742188 37.1513671875 330.25 10 348.6171875 c 6
 -10 362.147460938 l 6
 -36.90625 380.348632812 -18.4423828125 386.841796875 2 409.231445312 c 4
EndSplineSet
EndChar

StartChar: comma
Encoding: 44 44 65
Width: 255
Flags: HMW
LayerCount: 2
Fore
SplineSet
-16 81 m 0
 -16 138 33 183 91 183 c 0
 150 183 200 142 200 49 c 0
 200 -62.4772092885 88.3379583999 -147.627595761 -25.999996636 -155.417972419 c 0
 -44.4098309768 -156.672320056 -43 -154.055665491 -43 -136 c 2
 -43 -110 l 2
 -43 -90.8853071589 -35.1567807629 -96.6233250594 -19.0000017296 -93.8017481837 c 4
 30.7632216844 -85.1112313325 86.6045086249 -51.7797315715 113.999999096 -14.0656425083 c 0
 127.078362892 3.9387285959 122.899260322 7.40697206548 106.000001932 -5.34856807409 c 0
 95.2044188723 -13.497061332 81.0482459485 -15.0000000093 68 -15 c 0
 20 -15 -16 28 -16 81 c 0
EndSplineSet
EndChar

StartChar: exclam
Encoding: 33 33 67
Width: 378
Flags: HMW
LayerCount: 2
Fore
SplineSet
343 627 m 0
 292.531194755 486.068241957 231.181220541 435.812891991 192.624958339 288 c 0
 188.839645172 273.488269497 191.930504486 265 172 265 c 2
 144 265 l 2
 119.799604613 265 128.150820075 272.906325848 131.633949027 290 c 4
 158.113332193 419.9492364 128.932724038 494.663620188 163 665 c 0
 173 715 203 759 263 759 c 0
 325 759 353 723 353 682 c 0
 353 664 348.651367188 642.78125 343 627 c 0
EndSplineSet
Refer: 1 46 N 1 0 0 1 40 0 2
EndChar

StartChar: quotesingle
Encoding: 39 39 70
Width: 267
Flags: HMW
LayerCount: 2
Fore
SplineSet
146 488 m 6
 123 488 l 2
 101.200305158 488 105.210541529 496.206287935 103.295808509 514 c 0
 96.2919151611 579.087539773 90 623.441555593 90 682 c 0
 90 751 139 778 195 778 c 0
 231 778 277 749 277 697 c 0
 277 633.341379358 198.692367496 589.259666841 170.077702199 509 c 0
 164.575795339 493.568010599 167.97935278 488 146 488 c 6
EndSplineSet
EndChar

StartChar: question
Encoding: 63 63 75
Width: 570
Flags: HMW
LayerCount: 2
Fore
SplineSet
287.999992222 249.018250361 m 4
 257.891437295 237.794106144 235.750151929 236.23046875 221.236328125 236.23046875 c 0
 160.798828125 236.23046875 95 263.051757812 95 335.01171875 c 0
 95 492.845703125 389 432.737304688 389 600 c 0
 389 674 350 693 291 693 c 0
 227 693 189 672 189 655 c 0
 189 635 250 641 250 570 c 0
 250 508 197 470 142 470 c 0
 87 470 35 513 35 581 c 0
 35 683 159 770 321 770 c 0
 472 770 560 700 560 590 c 0
 560 362.944335938 195.484375 404.557617188 195.484375 343.689453125 c 0
 195.484375 327.388671875 206.681640625 323.1015625 230.245117188 323.1015625 c 0
 238.995485825 323.1015625 257.398929081 324.244454867 277.999999005 331.861710553 c 0
 298.325457628 339.377058825 314.367473846 358.514696292 317.645025144 330 c 6
 321.438128592 297 l 2
 325.621418267 260.60537983 314.013496422 258.715803878 287.999992222 249.018250361 c 4
EndSplineSet
Refer: 1 46 N 1 0 0 1 109 0 2
EndChar

StartChar: parenleft
Encoding: 40 40 76
Width: 460
Flags: HMW
LayerCount: 2
Fore
SplineSet
363.571428571 -115 m 6
 348.571428571 -150 l 2
 337.110221392 -176.742816752 324.345020461 -165.76143123 298.999993917 -155.538809145 c 0
 125.227466052 -85.4496783205 50 64.8313003847 50 235 c 0
 50 498.87070917 206.017583 715.095330119 471.999975782 792.471311966 c 0
 492.699960058 798.493069988 498.516026389 803.462605092 506.857142857 784 c 2
 520.142857143 753 l 2
 531.55433919 726.373208556 526.123396608 730.643180169 499.473777292 721.000002041 c 0
 343.122696457 664.42428495 245 462.529972192 245 235 c 0
 245 105.61389813 267.462069948 -13.6280431177 332.123253445 -73.9999973513 c 0
 348.229455268 -89.0378117981 373.328789135 -92.2328253515 363.571428571 -115 c 6
EndSplineSet
EndChar

StartChar: asterisk
Encoding: 42 42 78
Width: 659
VWidth: 1155
Flags: HMW
LayerCount: 2
Fore
SplineSet
402.999981128 484.873360812 m 4
 440.432920261 472.831921742 476.746482139 468.352557512 511.797851562 448.115234375 c 0
 571.553710938 413.615234375 565.436523438 349.01953125 542.436523438 309.182617188 c 0
 524.436523438 278.005859375 476.321289062 252.668945312 431.288085938 278.668945312 c 0
 383.836299081 306.065198393 384.257916909 387.372837827 348.433724684 447.999998376 c 0
 336.268256118 468.58825927 327.535981196 479.789895476 334.607148011 444 c 0
 342.65169385 403.283458838 358.28906248 368.357774532 358.2890625 326 c 0
 358.2890625 257 299.2890625 230 253.2890625 230 c 0
 217.2890625 230 171.2890625 259 171.2890625 311 c 0
 171.2890625 366.557049471 243.8993552 407.203056691 277.934005566 470 c 0
 296.496168545 504.248834166 278.650532874 488.921819173 261 472.80687262 c 0
 232.354201533 446.653242327 210.4246024 417.886487024 175.780273438 397.884765625 c 0
 116.024414062 363.384765625 63.1416015625 400.98046875 40.1416015625 440.817382812 c 0
 22.1416015625 471.994140625 24.255859375 526.331054688 69.2890625 552.331054688 c 0
 117.108658116 579.939661878 188.035158988 538.068704272 258.999996426 539.444078517 c 0
 297.496610551 540.190183961 279.404801379 547.347291204 257.000018888 554.665741297 c 0
 219.064629843 567.057214037 182.275279085 571.391303708 146.780273438 591.884765625 c 0
 87.0244140625 626.384765625 93.1416015625 690.98046875 116.141601562 730.817382812 c 0
 134.141601562 761.994140625 182.255859375 787.331054688 227.2890625 761.331054688 c 0
 273.704787162 734.532971327 274.315409568 656.152002938 307.848682195 596.00000165 c 0
 319.372391082 575.328766858 331.985771093 556.145395466 323.771656013 597 c 0
 315.671148349 637.2895545 300.289062493 671.989397212 300.2890625 714 c 0
 300.2890625 783 359.2890625 810 405.2890625 810 c 0
 441.2890625 810 487.2890625 781 487.2890625 729 c 0
 487.2890625 675.837711929 420.803527156 636.328703437 385.251380054 578 c 0
 363.792018602 542.792654394 373.452884974 544.920037107 399 568.498403922 c 0
 426.955893524 594.299920511 448.728934298 622.445723898 482.797851562 642.115234375 c 0
 542.553710938 676.615234375 595.436523438 639.01953125 618.436523438 599.182617188 c 0
 636.436523438 568.005859375 634.321289062 513.668945312 589.288085938 487.668945312 c 0
 543.360572656 461.152730421 476.119101962 498.726645735 408.000003572 500.523049537 c 0
 366.400576906 501.620089427 372.834958762 494.57685424 402.999981128 484.873360812 c 4
EndSplineSet
EndChar

StartChar: at
Encoding: 64 64 79
Width: 1100
VWidth: 1155
Flags: HMW
LayerCount: 2
Fore
SplineSet
644 346 m 0
 644 387.927734375 640 458 594 458 c 0
 550 458 495 324 495 220 c 0
 495 173.072265625 500 142 534 142 c 0
 595 142 644 268 644 346 c 0
845.000011761 -95.6174739876 m 0
 761.125023489 -179.629420276 639.568278193 -224 489 -224 c 0
 306 -224 45 -112 45 221 c 0
 45 554 292 800 605 800 c 0
 898 800 1050 624 1050 401 c 0
 1050 231 942 65 761 65 c 0
 704.536673303 65 662.385837119 91.9985616486 639.000002894 126.701468675 c 0
 621.491969846 152.682138736 628.234801346 153.328692444 609.000007258 128.690154386 c 0
 577.699027774 88.595606415 535.556521547 65 484 65 c 0
 375 65 324 125.583984375 324 210 c 0
 324 380 409 534 568 534 c 0
 627.978113215 534 655.460284855 513.160156128 664.857577901 477.000002962 c 0
 671.135169084 452.844253261 674.164652884 421.925593882 682.155273438 469 c 2
 687.587096774 501 l 2
 691.307235688 522.916111379 698.161162503 520 724 520 c 2
 831 520 l 2
 861.449618121 520 862.26485291 521.140338916 856.425806452 496 c 2
 790 210 l 2
 788 197 775 160 808 160 c 0
 859 160 957 241 957 405 c 0
 957 612 806 712 622 712 c 0
 408 712 230 503 230 231 c 0
 230 -71 411 -129 525 -129 c 0
 609.325497078 -129 696.065250423 -116.123966578 777.999991958 -42.7247304271 c 0
 795.906781809 -26.6833702865 800.395970903 -9.3959709033 820 -29 c 2
 848 -57 l 2
 866.495255543 -75.4952555427 863.346121386 -77.2414073176 845.000011761 -95.6174739876 c 0
EndSplineSet
EndChar

StartChar: dollar
Encoding: 36 36 80
Width: 733
Flags: HMW
LayerCount: 2
Fore
SplineSet
474 835 m 6
 504 835 l 2
 534.679929372 835 540.035893622 838.665469738 532.782608696 813 c 2
 526.565217391 791 l 2
 519.276629724 765.20961287 516.433292169 764.559431754 543.999996898 757.960429994 c 0
 636.80372188 735.744791584 718 680.988306748 718 579 c 0
 718 511 668 478 619 478 c 0
 572 478 527 504 527 561 c 0
 527 607 569 622 569 645 c 0
 569 663.179708636 558.782346066 677.822537064 528 686.218546709 c 0
 493.725900422 695.566946275 495.249360086 680.190043381 487 651 c 2
 441.217391304 489 l 2
 432.689597131 458.824728309 430.40376708 457.43978351 459.999997135 447.095386836 c 0
 564.441779792 410.591168996 674 361.07108148 674 225 c 0
 674 86.839454627 509.416122588 -4.66071312919 342.000004892 -18.2441482683 c 0
 302.310943454 -21.4643507146 298.272006059 -16.8067477917 288.891304348 -50 c 0
 281.239951984 -77.074016058 284.577697666 -85 248 -85 c 2
 216 -85 l 2
 183.115901481 -85 190.516354223 -79.6344389048 197.195652174 -56 c 2
 204.543478261 -30 l 2
 211.695887954 -4.69147339254 183.459917002 -9.2619944965 162 -3.09495389264 c 0
 32.0524805009 34.2486960869 2.13162820728e-14 126.010096138 0 196 c 0
 0 264 50 307 99 307 c 0
 146 307 191 281 191 224 c 0
 191 158 144 160 144 130 c 0
 144 111.069087671 148.687483779 85.7461520069 192 70.443614084 c 0
 221.206983259 60.1246345388 229.714051042 59.0651036881 238.456521739 90 c 2
 293 283 l 2
 304.706754489 324.423900499 296.669610398 320.503951523 259.682198533 335 c 0
 173.704912366 368.696083217 97 418.110462804 97 528 c 0
 97 681.316265622 260.483783327 754.92401997 395.999996689 767.895045364 c 0
 428.846105812 771.038932763 430.529800267 769.643908638 438.260869565 797 c 2
 442.782608696 813 l 2
 448.362164722 832.7430444 447.823296416 835 474 835 c 6
374.000004939 686.478795624 m 4
 311.629103782 672.000168793 274 635.724516311 274 570 c 0
 274 544.066310465 287.531638306 524.796952796 309.617250992 509 c 0
 339.762909182 487.438019983 349.000202807 481.15456378 360.826086957 523 c 2
 402.652173913 671 l 2
 410.213491112 697.755430087 399.567545572 692.413981311 374.000004939 686.478795624 c 4
370.000003926 63.8825742089 m 4
 455.793336893 82.1868115397 494 134.474479367 494 190 c 0
 494 229.733838546 466.511081248 254.649972777 426.000002148 274.350394733 c 0
 397.580745261 288.170598114 387.395318228 298.5526645 377.347826087 263 c 2
 326.760869565 84 l 2
 316.678116439 48.322565861 337.022917767 56.8468245689 370.000003926 63.8825742089 c 4
EndSplineSet
EndChar

StartChar: numbersign
Encoding: 35 35 81
Width: 660
Flags: HMW
LayerCount: 2
Fore
SplineSet
314 805 m 6
 340 805 l 2
 375.493156623 805 383.396938795 810.005697348 375.023255814 780 c 2
 327.023255814 608 l 2
 314.498719937 563.120413109 293.548932308 545 358 545 c 2
 392 545 l 2
 437.878794554 545 433.454035045 555.793625577 443 590 c 2
 495.465116279 778 l 2
 502.56618476 803.44549539 503.02959825 805 536 805 c 2
 562 805 l 2
 596.529409137 805 588.268439246 798.795240632 581.348837209 774 c 2
 531.674418605 596 l 2
 520.942445528 557.54376314 505.40742961 545 560 545 c 2
 632 545 l 2
 660.349034963 545 690 556.026778273 690 524 c 2
 690 498 l 2
 690 459.089856725 688.916293257 460 650 460 c 2
 534 460 l 2
 502.538122564 460 494.68254716 463.445793992 487.581395349 438 c 2
 459.11627907 336 l 2
 450.961807389 306.779809812 447.24612256 305 486 305 c 2
 588 305 l 2
 619.352945895 305 620 305.521419889 620 274 c 2
 620 244 l 2
 620 216.148353289 614.836870756 220 588 220 c 2
 448 220 l 2
 419.901933284 220 423.566060942 208.611718377 417.813953488 188 c 2
 359.209302326 -22 l 2
 352.933367243 -44.4887673789 356.756798674 -55 326 -55 c 2
 288 -55 l 2
 253.746871581 -55 266.236670644 -43.4019301906 272.76744186 -20 c 2
 330.255813953 186 l 2
 338.724266976 216.345289996 344.754394271 220 304 220 c 2
 250 220 l 2
 224.797654219 220 219.406602059 222.373657379 213.720930233 202 c 2
 148.976744186 -30 l 2
 141.607535309 -56.4063318107 137.484600092 -55 104 -55 c 2
 86 -55 l 2
 49.9037205707 -55 56.1436641426 -50.9018701559 63.6511627907 -24 c 2
 120.581395349 180 l 2
 129.743070689 212.829336635 139.819244716 220 94 220 c 2
 0 220 l 2
 -28.8025621843 220 -30 218.97448284 -30 248 c 2
 -30 270 l 2
 -30 301.670250264 -32.7998428219 305 0 305 c 2
 126 305 l 2
 161.378698088 305 157.872593615 313.626793786 165.23255814 340 c 2
 190.906976744 432 l 2
 199.572643518 463.051972607 195.823016601 460 158 460 c 2
 68 460 l 2
 37.8021977192 460 40 462.609604075 40 492 c 2
 40 522 l 2
 40 548.421111969 44.5027260462 545 70 545 c 2
 180 545 l 2
 227.24577186 545 224.427079241 552.113700614 234.441860465 588 c 2
 281.88372093 758 l 2
 287.828441003 779.301913592 284.634547239 805 314 805 c 6
374 460 m 6
 316 460 l 2
 282.633625073 460 284.423335566 455.35028578 277.348837209 430 c 2
 252.23255814 340 l 2
 244.463888645 312.162267643 234.902808192 305 274 305 c 2
 336 305 l 2
 369.133123972 305 365.782622676 313.304397922 372.674418605 338 c 2
 399.465116279 434 l 2
 406.793255535 460.259165669 407.496148405 460 374 460 c 6
EndSplineSet
EndChar

StartChar: slash
Encoding: 47 47 82
Width: 520
Flags: HMW
LayerCount: 2
Fore
SplineSet
474 780 m 2
 512 780 l 2
 548.585956112 780 551.195433388 782.287557719 537.980645161 757 c 2
 82.2903225806 -115 l 2
 68.4477455411 -141.488881989 69.5292753285 -150 27 -150 c 2
 -16 -150 l 6
 -55.6378734438 -150 -40.7289525705 -132.439767598 -26.7698924731 -106 c 6
 425.161290323 750 l 2
 437.37990692 773.143204554 436.664967345 780 474 780 c 2
EndSplineSet
EndChar

StartChar: percent
Encoding: 37 37 83
Width: 1050
Flags: HMW
LayerCount: 2
Fore
SplineSet
710 150 m 0
 710 88 714 45 743 45 c 0
 787 45 830 148 830 270 c 0
 830 332 826 375 797 375 c 0
 753 375 710 252 710 150 c 0
545 160 m 0
 545 343 677 440 820 440 c 0
 903 440 995 383 995 260 c 0
 995 97 853 -20 720 -20 c 0
 627 -20 545 37 545 160 c 0
822 750 m 2
 848 750 l 2
 881.389441077 750 894.11891096 754.895694485 863.077333333 718 c 2
 287.605333333 34 l 2
 268.555432807 11.3574874884 266.385828837 0 222 0 c 2
 198 0 l 2
 142.337455841 0 172.673010292 14.9445876083 192.224 38 c 6
 772.256 722 l 2
 786.748159156 739.089810326 798.711492259 750 822 750 c 2
220 480 m 0
 220 418 224 375 253 375 c 0
 297 375 340 478 340 600 c 0
 340 662 336 705 307 705 c 0
 263 705 220 582 220 480 c 0
55 490 m 0
 55 673 187 770 330 770 c 0
 413 770 505 713 505 590 c 0
 505 427 363 310 230 310 c 0
 137 310 55 367 55 490 c 0
EndSplineSet
EndChar

StartChar: hyphen
Encoding: 45 45 85
Width: 460
Flags: HMW
LayerCount: 2
Fore
SplineSet
105 435 m 2
 381 435 l 2
 413.114682376 435 410 431.150263825 410 400 c 2
 410 369 l 2
 410 340.885317624 401.150390625 340 365 340 c 6
 98 340 l 2
 66.0501135096 340 70 345.137149539 70 376 c 2
 70 404 l 2
 70 434.305664062 75.818243102 435 105 435 c 2
EndSplineSet
EndChar

StartChar: plus
Encoding: 43 43 87
Width: 530
Flags: HMW
LayerCount: 2
Fore
SplineSet
364 363 m 6
 444 363 l 2
 469.91224518 363 470 362.999777942 470 337 c 2
 470 297 l 2
 470 269.195265731 471.024367012 268 443 268 c 2
 326 268 l 2
 301.035293363 268 301.935505721 265.535573457 297.170731707 246 c 2
 272.292682927 144 l 2
 265.441549628 115.910353473 268.153596578 110 232 110 c 2
 193 110 l 2
 162.644051758 110 166.607546614 112.490941118 172.341463415 136 c 2
 198.926829268 245 l 2
 205.123823186 270.407675062 202.210394288 268 172 268 c 2
 87 268 l 2
 55.6668974497 268 60 273.808520399 60 304 c 2
 60 337 l 2
 60 365.624604365 63.2137094405 363 91 363 c 2
 194 363 l 2
 228.077704194 363 228.138510724 364.767893967 234.780487805 392 c 2
 259.902439024 495 l 2
 265.230614566 516.845519719 263.924108207 520 292 520 c 2
 330 520 l 2
 365.463776744 520 363.906054752 519.614824483 356.926829268 491 c 2
 333.268292683 394 l 2
 325.611863055 362.608638526 325.044056575 363 364 363 c 6
EndSplineSet
EndChar

StartChar: less
Encoding: 60 60 89
Width: 560
Flags: HMW
LayerCount: 2
Fore
SplineSet
226 370.112820513 m 6
 406 307.343589744 l 2
 434.911931939 297.261480144 450 301.546796891 450 260 c 2
 450 220 l 2
 450 175.378430142 451.671670969 174.399912986 418 186.487179487 c 2
 86 305.666666667 l 2
 59.2277863138 315.277204913 60 319.649765734 60 356 c 2
 60 424 l 2
 60 464.228540831 74.8273333507 459.387680277 104 468.020408163 c 2
 502 585.795918367 l 2
 520.914867587 591.393175102 550 603.602874346 550 582 c 6
 550 550 l 2
 550 508.184349955 555.671196672 494.620341906 522 485 c 2
 234 402.714285714 l 2
 182.274304659 387.935515617 179.476470922 386.33641014 226 370.112820513 c 6
EndSplineSet
EndChar

StartChar: backslash
Encoding: 92 92 91
Width: 520
Flags: HMW
LayerCount: 2
Fore
SplineSet
239.8 751 m 2
 415.8 -129 l 2
 419.681339119 -148.406695595 422.219203353 -150 398 -150 c 2
 330 -150 l 2
 302.993056352 -150 301.117629162 -150.60439293 296.71827957 -128 c 6
 126.811827957 745 l 2
 120.788077208 775.950763517 115.231474348 780 154 780 c 2
 198 780 l 2
 232.681145648 780 234.030908393 779.845458036 239.8 751 c 2
EndSplineSet
EndChar

StartChar: bracketleft
Encoding: 91 91 92
Width: 365
Flags: HMW
LayerCount: 2
Fore
SplineSet
196 780 m 2
 370 780 l 2
 402.829691942 780 425 790.750711805 425 754 c 2
 425 720 l 2
 425 681.550802711 430.062043927 675 390 675 c 2
 336 675 l 2
 291.472920415 675 291.874041333 672.464292196 284.032258065 636 c 2
 144.032258065 -15 l 2
 137.291854973 -46.3428743755 138.239787735 -45 176 -45 c 2
 220 -45 l 2
 247.358382252 -45 255 -39.7063775383 255 -69 c 2
 255 -127 l 2
 255 -154.785418343 248.13701739 -150 222 -150 c 2
 -22 -150 l 6
 -44.4643013245 -150 -55.2448021173 -151.138330508 -49.4085988443 -124 c 4
 12.5269186005 164 74.4623366562 452 136.397849462 740 c 0
 144.974658027 779.882159824 147.144359994 780 196 780 c 2
EndSplineSet
EndChar

StartChar: braceleft
Encoding: 123 123 93
Width: 312
VWidth: 1155
Flags: HMW
LayerCount: 2
Fore
SplineSet
203.000004969 -149.689673142 m 4
 71.0953409471 -146.72078805 -35 -120.972457193 -35 -10 c 0
 -35 107 85 152 85 215 c 0
 85 240.608823822 81.0986802049 251.782764403 70.859254973 259 c 0
 58.4813897919 267.724510134 45 262.961627802 45 289 c 2
 45 340 l 2
 45 367.220548466 54.5584367531 362.432049853 74.9999992519 370.221215399 c 0
 102.310280423 380.627675333 131 396.653724193 131 426 c 0
 131 489 105 494 105 601 c 0
 105 702.485717258 193.421326685 770.163280195 362.999947331 779.012131647 c 0
 384.747218852 780.146934929 402 787.815468443 402 762 c 2
 402 728 l 2
 402 698.005351218 405.98108361 693.890943344 376.000001594 692.420593484 c 0
 321.514763851 689.748496404 268 676.313914951 268 622 c 0
 268 556 282 571 282 471 c 0
 282 411.016467618 247.341297572 366.530729006 197.767873197 334.999998796 c 0
 158.455944815 309.996000718 149.269693152 320.743901161 182.283580258 289 c 0
 200.46339339 271.51953218 212 249.233153026 212 220 c 0
 212 120 138 90 138 24 c 0
 138 -26.224694456 158.337777239 -51.6627229017 197.999979884 -59.9142240854 c 0
 212.555956358 -62.9425142229 232 -56.1739248216 232 -76 c 2
 232 -107 l 2
 232 -140.203682917 238.491224294 -150.488502756 203.000004969 -149.689673142 c 4
EndSplineSet
EndChar

StartChar: bar
Encoding: 124 124 96
Width: 300
VWidth: 1155
Flags: HMW
LayerCount: 2
Fore
SplineSet
210 780 m 2
 256 780 l 2
 289.172255559 780 290.329808356 781.415427528 283.941747573 754 c 2
 56.7572815534 -221 l 2
 50.0840184242 -249.63942093 48.6477926356 -250 13 -250 c 2
 -22 -250 l 2
 -61.1516444207 -250 -59.9879739307 -249.948388119 -52.5436893204 -218 c 6
 174.873786408 758 l 2
 180.151796137 780.651458422 182.396398225 780 210 780 c 2
EndSplineSet
EndChar

StartChar: cent
Encoding: 162 162 98
Width: 620
VWidth: 1155
Flags: HMW
LayerCount: 2
Fore
SplineSet
375 615 m 2
 400 615 l 2
 417.768380814 615 420.795715308 617.107035227 416.911049107 602 c 2
 408.939620536 571 l 2
 402.396392825 545.554114458 394.871303601 540.36117604 423.999991577 535.17499522 c 0
 521.929805721 517.739203939 580 454.897219746 580 377 c 0
 580 299 521 270 467 270 c 0
 429 270 385 301 385 358 c 0
 385 416 444 424 444 441 c 0
 444 450.597801802 429.286740369 462.114724425 406.000001533 466.341097231 c 0
 383.768161322 470.376013651 381.967479911 466.108342014 377.311049107 448 c 2
 288.082477679 101 l 2
 279.44496967 67.4096910783 284.958699588 66.535313716 317 80.9218950194 c 0
 347.740273063 94.7243135237 374.406939729 119.585850221 397 150.594726562 c 0
 408.49609375 166.374023438 407.939453125 173 437 173 c 2
 482 173 l 6
 504.291992188 173 510.620117188 171.420898438 499 151.12890625 c 0
 456.599359534 77.0891538036 394.892813193 3.90215101131 290 -15.200308923 c 0
 271.184140673 -18.6269421497 258.406555278 -14.4063648892 253.625334821 -33 c 2
 244.111049107 -70 l 2
 240.245481803 -85.0327617374 239.096814086 -85 220 -85 c 2
 195 -85 l 2
 171.533902975 -85 176.103819985 -81.6947799191 180.65390625 -64 c 2
 188.111049107 -35 l 2
 193.313127091 -14.7696967288 188.79844742 -18.2632169173 168.000002447 -14.5850416769 c 4
 87.0585807839 -0.270667045536 10 47.0543438195 10 180 c 0
 10 383.975794128 148.42491357 509.301069181 305.999994761 535.050431136 c 0
 332.254533077 539.340688231 335.341537986 537.563012306 341.625334821 562 c 2
 349.85390625 594 l 2
 354.279984233 611.21252549 352.606022484 615 375 615 c 2
227.968191964 120 m 2
 305.111049107 420 l 2
 314.195001414 455.326481192 297.607355583 434.481962462 281.750363708 419.000003758 c 0
 232.180994518 370.602998019 195 289.504715475 195 190 c 0
 195 155.978489031 198.804663578 127.663973429 207.677297978 107.000002799 c 0
 220.188089201 77.8629268514 221.831010656 96.1331838011 227.968191964 120 c 2
EndSplineSet
EndChar

StartChar: sterling
Encoding: 163 163 99
Width: 650
VWidth: 1155
Flags: HMW
LayerCount: 2
Fore
SplineSet
448.88073602 372 m 2
 448.107689145 334 l 2
 447.276846925 293.159003951 437.296733929 300 398 300 c 2
 330 300 l 2
 292.369256534 300 296.033142895 293.409991699 283.457877828 270 c 0
 256.40638079 219.64119502 213.272411776 184.623335395 162.000002471 161.547688198 c 0
 96.0022805911 131.844770654 94.7879200218 111.368805292 165.999997478 153.274056808 c 0
 188.634501054 166.593490802 214.041616823 167.000000007 233.7109375 167 c 0
 313.7109375 167 321.244140625 113 387.244140625 113 c 0
 418.518931318 113 454.230774421 129.927853463 475.999999205 159.166568464 c 0
 492.629288323 181.50172509 483.422163786 197 524 197 c 2
 538 197 l 2
 572.942879132 197 555.268127674 173.705631581 548.13705182 152.000008571 c 0
 509.117649101 33.2324533291 433.169726418 -40 335.920898438 -40 c 0
 218.920898438 -40 191.236328125 35 118.236328125 35 c 0
 81.448504285 35 53.8364019764 25.9073906015 33.9999991471 12.1090218083 c 0
 10.1304771356 -4.49481863924 15.187717415 -20 -25.4609375 -20 c 2
 -52 -20 l 2
 -78.9169680561 -20 -67.4335123266 -0.10441262031 -61.9027064455 18 c 0
 -26.5593399899 133.692161947 109.040237475 203.079378927 122.412109375 261 c 0
 131.619917466 300.882849813 125.497028299 300 84 300 c 2
 -14 300 l 2
 -39.8847841112 300 -42.6308361663 297.696946812 -42.0957442434 324 c 2
 -41.3226973684 362 l 2
 -40.6245811472 396.316698335 -38.9606566609 395 -4 395 c 2
 56 395 l 2
 108.061349133 395 108.627546159 392.442139961 96.1278242247 432 c 0
 85.0038777488 467.203944543 77.5714896088 504.249590478 88.1337890625 550 c 0
 120.455078125 690 255.079101562 775 456.079101562 775 c 0
 638.079101562 775 678.530273438 673 657.290039062 581 c 0
 641.591796875 513 587.818359375 475 538.818359375 475 c 0
 491.818359375 475 449.975585938 506 463.134765625 563 c 0
 473.754882812 609 514.217773438 624 519.52734375 647 c 0
 525.760742188 674 511.147460938 693 437.147460938 693 c 0
 358.147460938 693 298.526367188 634 281.442382812 560 c 0
 270.707886839 513.504795396 278.417243224 474.288392312 287.82029201 438 c 0
 296.52885157 404.391791327 292.170112755 395 336 395 c 2
 414 395 l 2
 441.070975119 395 449.461193456 400.53304669 448.88073602 372 c 2
EndSplineSet
EndChar

StartChar: section
Encoding: 167 167 101
Width: 574
VWidth: 1155
Flags: HMW
LayerCount: 2
Fore
SplineSet
432.3359375 658 m 0
 438.337890625 684 398.646484375 694 346.646484375 694 c 0
 293.646484375 694 253.336914062 671 244.794921875 634 c 0
 218.013671875 518 565.631835938 538 528 375 c 0
 519.67183096 338.925946062 490.723575191 305.25821122 452.969074287 276.000003589 c 0
 428.493636862 257.032531819 425.193183284 261.354773323 447.265067201 240 c 0
 471.721480818 216.338169816 484.235407238 185.433885935 474.208007812 142 c 0
 445.580078125 18 276.806640625 -20 181.806640625 -20 c 0
 73.806640625 -20 -74.8046875 12 -45.7158203125 138 c 0
 -30.0166015625 206 32.6015625 239 71.6015625 239 c 0
 118.6015625 239 150.291015625 203 139.439453125 156 c 0
 131.12890625 120 77.974609375 115 72.6640625 92 c 0
 66.662109375 66 136.353515625 56 188.353515625 56 c 0
 251.353515625 56 299.354492188 69 310.205078125 116 c 0
 336.986328125 232 -10.6318359375 212 27 375 c 0
 37.6229906072 421.01444401 70.1427448819 448.649295506 108.497449644 472 c 0
 141.973529134 492.380551607 127.129143405 488.087124854 104.348825786 512 c 4
 82.0588199972 535.398186731 71.0447011948 565.77940948 80.7919921875 608 c 0
 104.802734375 712 258.193359375 770 353.193359375 770 c 0
 481.193359375 770 597.49609375 728 570.715820312 612 c 0
 555.016601562 544 503.552734375 516 464.552734375 516 c 0
 427.552734375 516 374.708984375 547 385.560546875 594 c 0
 393.87109375 630 427.025390625 635 432.3359375 658 c 0
352.303710938 333 m 4
 365.592084156 390.559350866 306.673519257 415.491795993 240.000001958 440.795013116 c 0
 210.223002208 452.095660216 200.190786599 449.463474947 192.696289062 417 c 0
 179.607442871 360.304911895 238.446462293 335.264289123 305.999997981 310.344643239 c 0
 335.229496563 299.56225048 344.970348739 301.234505536 352.303710938 333 c 4
EndSplineSet
EndChar

StartChar: brokenbar
Encoding: 166 166 102
Width: 300
VWidth: 1155
Flags: HMW
LayerCount: 2
Fore
SplineSet
60 166 m 6
 116 166 l 2
 155.671441637 166 144.742346892 156.317693886 137.90625 127 c 2
 56.5288461538 -222 l 2
 52.0188830816 -241.341697299 55.5704870283 -250 30 -250 c 2
 -32 -250 l 2
 -68.1718761178 -250 -57.8206738037 -240.653611364 -51.6057692308 -214 c 2
 29.7716346154 135 l 2
 34.9288180848 157.117405395 31.1628983215 166 60 166 c 6
212 780 m 6
 260 780 l 2
 298.08188336 780 287.931360377 771.178582991 281.323427296 743 c 2
 210.034829944 439 l 2
 203.400756846 410.709946659 203.306968173 409.000976562 168 409.000976562 c 2
 120 409.000976562 l 2
 81.5144162592 409.000976562 96.9687270959 425.925044112 103.317857453 453 c 2
 171.323427296 743 l 2
 178.118790485 771.977851806 174.285173006 780 212 780 c 6
EndSplineSet
EndChar

StartChar: asciitilde
Encoding: 126 126 104
Width: 688
VWidth: 1155
Flags: HMW
LayerCount: 2
Fore
SplineSet
243 417 m 0
 194.136037128 417 169.33543397 397.74931223 156 369.513128968 c 0
 147.76649849 352.079676255 153.267908022 343 126 343 c 2
 93 343 l 2
 68.2462993479 343 68.9500394507 345.099386443 73.9999993089 366.116604887 c 4
 94.7278897736 452.383152349 178.067468643 530 269 530 c 0
 389 530 369 436 445 436 c 0
 479.86195598 436 514.72391196 457.033743208 531.999999347 487.377317229 c 0
 541.155734318 503.45837283 536.010371406 510 562 510 c 2
 599 510 l 2
 620.433547532 510 618.437248642 507.183816741 614.799708483 489.000002789 c 0
 597.374104313 401.89060182 529.195962424 323 419 323 c 0
 302 323 326 417 243 417 c 0
EndSplineSet
EndChar

StartChar: copyright
Encoding: 169 169 105
Width: 870
Flags: HMW
LayerCount: 2
Fore
SplineSet
20 285 m 0
 20 538 248 760 515 760 c 0
 692 760 830 638 830 465 c 0
 830 202 602 -10 335 -10 c 0
 158 -10 20 112 20 285 c 0
75 285 m 0
 75 140 200 39 335 39 c 0
 570 39 775 220 775 465 c 0
 775 610 660 711 515 711 c 0
 280 711 75 520 75 285 c 0
EndSplineSet
Refer: 14 67 S 0.6 0 0 0.6 162 150 2
EndChar

StartChar: registered
Encoding: 174 174 106
Width: 870
Flags: HMW
LayerCount: 2
Fore
SplineSet
20 285 m 0
 20 538 248 760 515 760 c 0
 692 760 830 638 830 465 c 0
 830 202 602 -10 335 -10 c 0
 158 -10 20 112 20 285 c 0
75 285 m 0
 75 140 200 39 335 39 c 0
 570 39 775 220 775 465 c 0
 775 610 660 711 515 711 c 0
 280 711 75 520 75 285 c 0
EndSplineSet
Refer: 29 82 S 0.6 0 0 0.6 168 148 2
EndChar

StartChar: guillemotleft
Encoding: 171 171 108
Width: 695
Flags: HMW
LayerCount: 2
Fore
SplineSet
469.920898438 365 m 2
 584.04296875 230 l 2
 595.25 216.7421875 614.052734375 205.075195312 601.158203125 191 c 2
 575.505859375 163 l 2
 556.029296875 141.741210938 554.071289062 149.106445312 533 166.608398438 c 2
 297 362.635742188 l 2
 286.8046875 371.104492188 281.422851562 372.004882812 285.115234375 388 c 0
 288.356445312 402.040039062 293.604492188 403.43359375 304 409.674804688 c 2
 648 616.200195312 l 2
 662.401367188 624.846679688 668.444335938 634.719726562 677.446289062 618 c 2
 688.213867188 598 l 2
 699.041992188 577.887695312 702.186523438 576.193359375 684 562.537109375 c 2
 480 409.3515625 l 2
 454.37109375 390.106445312 448.484375 390.358398438 469.920898438 365 c 2
189.920742187 365 m 2
 304.042851562 230 l 2
 315.250409928 216.742092415 334.052585141 205.074743114 321.157901278 191 c 2
 295.505486506 163 l 2
 276.028843918 141.740949056 274.070938641 149.106362041 253 166.608381004 c 2
 17 362.635551198 l 2
 6.80453016844 371.104149079 1.42280019576 372.00485364 5.1154296875 388 c 0
 8.35677383273 402.040340121 13.6048384279 403.433551231 24 409.674453344 c 2
 368 616.200375229 l 2
 382.400940289 624.846210895 388.444537911 634.719300338 397.446004971 618 c 2
 408.213760653 598 l 2
 419.041939211 577.887770717 422.186423766 576.193758288 404 562.537350062 c 2
 200 409.351252889 l 2
 174.370921872 390.106064396 168.484353601 390.358035135 189.920742187 365 c 2
EndSplineSet
EndChar

StartChar: mu
Encoding: 181 181 111
Width: 826
VWidth: 1155
Flags: HMW
LayerCount: 2
Fore
SplineSet
171 -103 m 0
 214 -103 247 -117 247 -161 c 0
 247 -206 194 -260 146 -260 c 0
 44 -260 10 -191 30 -102 c 1
 81.820205522 61.8464611447 138.075934448 221.257398885 185 390 c 0
 186.400390625 395.905273438 187 400 187 405 c 0
 187 416 184 420 173 420 c 0
 151.176757812 420 127.239257812 398.864257812 100.005859375 356 c 0
 86.986328125 335.508789062 88.001953125 327.755859375 60 336.458984375 c 2
 32 345.162109375 l 2
 3.6728515625 353.966796875 13.677734375 361.29296875 26 383.209960938 c 0
 82.5078125 483.720703125 166.116210938 540 258 540 c 0
 325 540 361 507 361 457 c 0
 361 438 358.270507812 420.134765625 354 405 c 2
 293.923828125 190 l 1
 274.923828125 126 273 87 309 87 c 0
 377.458984375 87 488 221 517.373046875 352.572265625 c 2
 547.870117188 488 l 2
 553.977539062 515.122070312 551.643554688 520 586 520 c 2
 692 520 l 2
 723.830078125 520 723.009765625 520.043945312 717.004882812 494 c 2
 634 134 l 2
 632.599609375 128.094726562 631 119 631 114 c 0
 631 103 635 100 645 100 c 0
 666.653320312 100 688.306640625 120.807617188 715.736328125 163 c 0
 728.75 183.018554688 728.303710938 192.479492188 756 183.75390625 c 2
 782 175.561523438 l 2
 812.090820312 166.081054688 802.866210938 158.755859375 790 134.75 c 0
 732.8203125 28.0625 645.838867188 -20 563 -20 c 0
 496 -20 467 5 467 65 c 0
 467 84 470.791015625 105.166015625 476 120 c 0
 486.245117188 149.173828125 471.889648438 133.268554688 462 117.659179688 c 0
 407.5546875 31.720703125 329.573242188 -19 235 -19 c 0
 211.701142768 -19 190.25263173 -14.9566509088 172.000002211 -6.49320283556 c 0
 130.349032257 12.8196759498 135.759186643 41.2836378839 116.421428571 -18 c 6
 90 -99 l 1
 80 -136 104 -142 117 -142 c 0
 137 -142 146 -103 171 -103 c 0
EndSplineSet
EndChar

StartChar: asciicircum
Encoding: 94 94 113
Width: 545
Flags: HMW
LayerCount: 2
Fore
SplineSet
323 656.2 m 2
 183 567.7 l 2
 162.424853781 554.693568283 158.152628116 547.707179552 138 562.363636364 c 2
 119 576.181818182 l 2
 96.8312566874 592.304540591 103.049523945 592.495065046 123 608.818181818 c 2
 292 747.090909091 l 2
 308.405848216 760.513875813 313.55357683 770 345 770 c 2
 396 770 l 2
 425.842722827 770 428.166610409 765.92864376 440.555555556 750 c 6
 549.444444444 610 l 2
 568.967219345 584.899289413 557.081824513 584.241326919 533 566.727272727 c 0
 508.13166521 548.641211062 506.946678002 552.793789628 485 572.875 c 2
 392 657.97 l 2
 361.805263901 685.59818353 357.746814833 678.164950805 323 656.2 c 2
EndSplineSet
EndChar

StartChar: degree
Encoding: 176 176 115
Width: 320
Flags: HMW
LayerCount: 2
Fore
SplineSet
105 680 m 0
 105 650 130 625 160 625 c 0
 190 625 215 650 215 680 c 0
 215 710 190 735 160 735 c 0
 130 735 105 710 105 680 c 0
40 680 m 0
 40 746 94 800 160 800 c 0
 226 800 280 746 280 680 c 0
 280 614 226 560 160 560 c 0
 94 560 40 614 40 680 c 0
EndSplineSet
EndChar

StartChar: onequarter
Encoding: 188 188 119
Width: 1000
Flags: HMW
LayerCount: 2
Fore
SplineSet
716 750 m 6
 734 750 l 6
 775.854185106 750 759.447519423 740.557005821 746.184 718 c 6
 336.936 22 l 6
 328.776822407 8.12384763077 329.291574568 0 306 0 c 6
 270 0 l 6
 232.581039783 0 235.16210743 0.272602181122 249.272 24 c 6
 661.970666667 718 l 6
 676.149524622 741.843371002 675.856547311 750 716 750 c 6
EndSplineSet
Refer: 6 52 N 0.6 0 0 0.6 535 32 2
Refer: 3 49 N 0.6 0 0 0.6 107 456 2
EndChar

StartChar: onehalf
Encoding: 189 189 120
Width: 1000
Flags: HMW
LayerCount: 2
Fore
SplineSet
716 750 m 6
 734 750 l 6
 775.854185106 750 759.447519423 740.557005821 746.184 718 c 6
 336.936 22 l 6
 328.776822407 8.12384763077 329.291574568 0 306 0 c 6
 270 0 l 6
 232.581039783 0 235.16210743 0.272602181122 249.272 24 c 6
 661.970666667 718 l 6
 676.149524622 741.843371002 675.856547311 750 716 750 c 6
EndSplineSet
Refer: 4 50 N 0.6 0 0 0.6 576 17 2
Refer: 3 49 N 0.6 0 0 0.6 107 456 2
EndChar

StartChar: threequarters
Encoding: 190 190 121
Width: 1000
Flags: HMW
LayerCount: 2
Fore
SplineSet
716 750 m 6
 734 750 l 6
 775.854185106 750 759.447519423 740.557005821 746.184 718 c 6
 336.936 22 l 6
 328.776822407 8.12384763077 329.291574568 0 306 0 c 6
 270 0 l 6
 232.581039783 0 235.16210743 0.272602181122 249.272 24 c 6
 661.970666667 718 l 6
 676.149524622 741.843371002 675.856547311 750 716 750 c 6
EndSplineSet
Refer: 6 52 N 0.6 0 0 0.6 535 32 2
Refer: 5 51 N 0.6 0 0 0.6 65 457 2
EndChar

StartChar: grave
Encoding: 96 96 123
Width: 395
Flags: HMW
LayerCount: 2
Fore
SplineSet
210 690 m 2
 171.0546875 689.134765625 135 716 135 755 c 0
 135 794 176.610620884 835.397673752 220 818 c 2
 409 742.217391304 l 2
 425.454064797 735.619867738 427.01449337 735.289867397 425.9 713 c 0
 424.971427396 694.428547924 424.053032723 694.977977505 405 694.534883721 c 6
 210 690 l 2
EndSplineSet
EndChar

StartChar: acute
Encoding: 180 180 124
Width: 395
Flags: HMW
LayerCount: 2
Fore
SplineSet
265 705 m 2
 84 709.209302326 l 2
 64.2668926379 709.668211799 50.3136797687 703.726404626 49.25 725 c 0
 47.8757753015 752.48449397 51.9864697503 751.598439562 72 759.623188406 c 6
 255 833 l 2
 298.389648438 850.397460938 340 809 340 770 c 0
 340 731 303.9453125 704.134765625 265 705 c 2
EndSplineSet
EndChar

StartChar: multiply
Encoding: 215 215 127
Width: 530
Flags: HMW
LayerCount: 2
Fore
SplineSet
322 406.77239576 m 6
 398 471.593285751 l 2
 421.980650576 492.046537236 423.043414922 496.869641051 446 473.913381391 c 2
 470 449.913721599 l 2
 494.157652296 425.756411747 494.161085974 425.960979543 468 403.648084753 c 2
 386 333.70995701 l 2
 363.416539972 314.448433689 353.568243948 313.472223642 373.819867969 289 c 2
 416.851693133 237 l 2
 440.377755459 208.570919051 446.859197077 206.945094326 420 180.086281936 c 2
 402 162.086539738 l 2
 375.546262099 135.633180716 375.836285782 135.984973636 351.825430795 165 c 2
 307.138717329 219 l 2
 283.867277227 247.121507894 283.786053699 246.531273673 256 222.832437416 c 2
 180 158.011733654 l 2
 151.972734889 134.107167219 151.314382771 138.771554729 126 164.0859375 c 2
 106 184.0859375 l 2
 80.4719572758 209.613980224 92.337401193 210.891684545 118 232.779480521 c 2
 194 297.600370512 l 2
 223.449210992 322.717792433 220.904570027 323.206454071 196.249465396 353 c 2
 153.217815392 405 l 2
 133.032084961 429.392696593 140.808073126 430.722135626 162 451.9140625 c 2
 182 471.9140625 l 2
 198.219610428 488.133672928 200.553273893 498.376731237 216.588199102 479 c 2
 269.550445457 415 l 2
 293.07729936 386.569962503 292.972388171 382.014558482 322 406.77239576 c 6
EndSplineSet
EndChar

StartChar: cedilla
Encoding: 184 184 128
Width: 550
Flags: HMW
LayerCount: 2
Fore
SplineSet
130.000000886 -199.700594624 m 0
 217.009898907 -201.675302632 249 -171.736356304 249 -150 c 0
 249 -120.887324602 212.943382945 -103.656671031 120 -99.8277792281 c 0
 75.46099951 -97.9929523854 76.6004724959 -99.5202083007 98.2234933036 -72 c 2
 187 40.98828125 l 1
 297 40.98828125 l 1
 252.223493304 -16 l 2
 220.853978134 -55.9248374884 203.658742685 -58.2180921773 265.999995565 -72.3253323434 c 4
 324.417214573 -85.5446004895 360 -108.904606177 360 -140 c 0
 360 -187.568376804 298.453187168 -244.187755495 128 -240.971501158 c 0
 106.716583961 -240.569907734 101 -243.691820092 101 -220 c 0
 101 -193.149836891 107.405237632 -199.187801702 130.000000886 -199.700594624 c 0
EndSplineSet
EndChar

StartChar: AE
Encoding: 198 198 526
Width: 1197
Flags: HMW
LayerCount: 2
Fore
SplineSet
250 295 m 5
 640 295 l 5
 640 200 l 1
 250 200 l 1
 250 295 l 5
-70 105 m 1
 260 105 l 1
 260 0 l 1
 -70 0 l 1
 -70 105 l 1
696 750 m 1
 815 750 l 1
 79 0 l 1
 -45 0 l 1
 696 750 l 1
EndSplineSet
Refer: 16 69 N 1 0 0 1 460 0 2
EndChar

StartChar: ae
Encoding: 230 230 529
Width: 945
VWidth: 1155
Flags: HMW
LayerCount: 2
Back
SplineSet
361 250 m 5
 462 270 l 5
 462 146 497 39 606 39 c 4
 689 39 743 93 768 173 c 5
 819 173 l 5
 793 66 725 -10 594 -10 c 4
 443 -10 361 110 361 250 c 5
438 304 m 5
 762 304 l 5
 762 261 l 5
 438 261 l 5
 438 304 l 5
807 261 m 5
 762 261 l 5
 762 290 l 5
 807 290 l 5
 807 261 l 5
818 261 m 5
 726 261 l 5
 726 364 700 486 601 486 c 4
 492 486 462 374 462 270 c 5
 361 250 l 5
 361 410 440 530 601 530 c 4
 770 530 818 400 818 261 c 5
299 299 m 5
 299 261 l 5
 183 261 142 215 142 138 c 4
 142 71 190 46 240 46 c 4
 308 46 361 79 361 250 c 5
 395 179 l 5
 395 55 326 -10 195 -10 c 4
 106 -10 40 39 40 123 c 4
 40 217 127 299 299 299 c 5
451 367 m 5
 451 271 l 5
 361 273 l 5
 361 377 l 5
 451 367 l 5
70 403 m 5
 70 480 162 530 283 530 c 4
 423 530 451 448 451 367 c 5
 361 367 l 5
 361 434 338 484 258 484 c 4
 204 484 156 465 156 445 c 5
 70 403 l 5
299 299 m 5
 413 299 l 5
 413 261 l 5
 299 261 l 5
 299 299 l 5
184 393 m 4
 184 359 163 340 129 340 c 4
 98 340 70 359 70 403 c 5
 156 445 l 5
 156 427 184 432 184 393 c 4
EndSplineSet
Fore
SplineSet
418 320 m 0
 418 404 388 445 337 445 c 0
 263 445 190 334 190 190 c 0
 190 116 210 74 257 74 c 0
 338 74 418 206 418 320 c 0
545 170 m 0
 545 116 563 69 622 69 c 0
 667.542340936 69 732.282519274 105.180539721 767.999998968 150.258947452 c 0
 783.064166421 169.271170274 782.811714862 173 818 173 c 2
 852 173 l 2
 885.970111768 173 880.119270642 169.495421008 868 148.366554021 c 4
 818.342138243 61.792502913 727.221146811 -20 571 -20 c 0
 506.195848228 -20 455.095814682 -2.86985221826 420.000007238 30.1798602518 c 0
 383.154191947 64.8775546428 397.281812071 76.1204573853 356.000007593 40.2157717484 c 0
 313.492978533 3.24545189358 261.499661187 -20 202 -20 c 0
 93 -20 10 40 10 180 c 0
 10 410 173 539 312 539 c 0
 371.539875098 539 413.646530858 517.934859967 441.0602507 482.000003283 c 0
 474.716939841 437.881645478 460.206915684 441.844153186 505.999996533 473.64433165 c 0
 568.641015011 517.144256307 652.720478766 540 737 540 c 0
 859 540 925 504 925 422 c 0
 925 279.937436159 720.690702754 231.309002156 580.000003043 217.121400058 c 0
 543.436944161 213.434289738 545 208.496394267 545 170 c 0
754 433 m 0
 754 452 747 462 722 462 c 0
 675.386630176 462 610.974595448 412.711389497 574.085112904 324.000011666 c 0
 558.459221709 286.423059046 555.910892213 278.216703534 601.999996277 289.843907134 c 0
 689.004941015 311.793220908 754 359.744900499 754 433 c 0
EndSplineSet
EndChar

StartChar: perthousand
Encoding: 8240 8240 537
Width: 1540
Flags: HMW
LayerCount: 2
Fore
SplineSet
1200 150 m 0
 1200 88 1204 45 1233 45 c 0
 1277 45 1320 148 1320 270 c 0
 1320 332 1316 375 1287 375 c 0
 1243 375 1200 252 1200 150 c 0
1035 160 m 0
 1035 343 1167 440 1310 440 c 0
 1393 440 1485 383 1485 260 c 0
 1485 97 1343 -20 1210 -20 c 0
 1117 -20 1035 37 1035 160 c 0
710 150 m 0
 710 88 714 45 743 45 c 0
 787 45 830 148 830 270 c 0
 830 332 826 375 797 375 c 0
 753 375 710 252 710 150 c 0
545 160 m 0
 545 343 677 440 820 440 c 0
 903 440 995 383 995 260 c 0
 995 97 853 -20 720 -20 c 0
 627 -20 545 37 545 160 c 0
834 750 m 6
 860 750 l 6
 903.195488324 750 880.934670846 739.225044587 865.601333333 721 c 6
 285.922666667 32 l 6
 267.365188211 9.94277521131 264.985346479 0 222 0 c 6
 182 0 l 6
 146.557221867 0 172.32677349 14.5362894928 183.744 28 c 6
 759.536 707 l 6
 781.136693042 732.472515379 784.244704722 750 834 750 c 6
220 480 m 0
 220 418 224 375 253 375 c 0
 297 375 340 478 340 600 c 0
 340 662 336 705 307 705 c 0
 263 705 220 582 220 480 c 0
55 490 m 0
 55 673 187 770 330 770 c 0
 413 770 505 713 505 590 c 0
 505 427 363 310 230 310 c 0
 137 310 55 367 55 490 c 0
EndSplineSet
EndChar

StartChar: uni2031
Encoding: 8241 8241 538
Width: 2030
Flags: HMW
LayerCount: 2
Fore
SplineSet
834 750 m 6
 860 750 l 6
 903.195488324 750 880.934670846 739.225044587 865.601333333 721 c 6
 285.922666667 32 l 6
 267.365188211 9.94277521131 264.985346479 0 222 0 c 6
 182 0 l 6
 146.557221867 0 172.32677349 14.5362894928 183.744 28 c 6
 759.536 707 l 6
 781.136693042 732.472515379 784.244704722 750 834 750 c 6
1690 150 m 0
 1690 88 1694 45 1723 45 c 0
 1767 45 1810 148 1810 270 c 0
 1810 332 1806 375 1777 375 c 0
 1733 375 1690 252 1690 150 c 0
1525 160 m 0
 1525 343 1657 440 1800 440 c 0
 1883 440 1975 383 1975 260 c 0
 1975 97 1833 -20 1700 -20 c 0
 1607 -20 1525 37 1525 160 c 0
1200 150 m 0
 1200 88 1204 45 1233 45 c 0
 1277 45 1320 148 1320 270 c 0
 1320 332 1316 375 1287 375 c 0
 1243 375 1200 252 1200 150 c 0
1035 160 m 0
 1035 343 1167 440 1310 440 c 0
 1393 440 1485 383 1485 260 c 0
 1485 97 1343 -20 1210 -20 c 0
 1117 -20 1035 37 1035 160 c 0
710 150 m 0
 710 88 714 45 743 45 c 0
 787 45 830 148 830 270 c 0
 830 332 826 375 797 375 c 0
 753 375 710 252 710 150 c 0
545 160 m 0
 545 343 677 440 820 440 c 0
 903 440 995 383 995 260 c 0
 995 97 853 -20 720 -20 c 0
 627 -20 545 37 545 160 c 0
220 480 m 0
 220 418 224 375 253 375 c 0
 297 375 340 478 340 600 c 0
 340 662 336 705 307 705 c 0
 263 705 220 582 220 480 c 0
55 490 m 0
 55 673 187 770 330 770 c 0
 413 770 505 713 505 590 c 0
 505 427 363 310 230 310 c 0
 137 310 55 367 55 490 c 0
EndSplineSet
EndChar

StartChar: uniFB00
Encoding: 64256 64256 542
Width: 870
VWidth: 1155
Flags: HMW
LayerCount: 2
Fore
SplineSet
135 542 m 0
 160.719277634 673.835112022 282 770 442 770 c 0
 510.802386998 770 566.747095978 758.332847725 605.999994426 738.600304025 c 0
 654.102605628 714.41898455 643.885423122 723.418637161 687.999990071 751.9124717 c 0
 735.107380132 782.339386681 793.728883334 800 862 800 c 0
 1003 800 1080 731 1080 664 c 0
 1080 586 1021 547 967 547 c 0
 919 547 872 578 872 635 c 0
 872 671 896 698 896 710 c 0
 896 716 881 720 864 720 c 0
 804 720 760.576923077 677.884615385 735 550 c 0
 729.724534172 523.622670859 724.767394231 520 758 520 c 2
 828 520 l 2
 852.343914279 520 855 522.221540363 855 497 c 2
 855 471 l 2
 855 445.935927887 861.511269896 435 834 435 c 2
 748 435 l 2
 713.955906299 435 712.067425886 435.33712943 706.4 407 c 2
 611 -70 l 2
 605.232140562 -98.8392971897 604.916460641 -100 570 -100 c 2
 468 -100 l 2
 431.6478285 -100 435.485342365 -97.4911533132 441.19047619 -68 c 2
 531.919642857 401 l 2
 537.898460052 431.905885807 542.473217706 435 504 435 c 2
 320 435 l 2
 286.307868425 435 287.337039581 432.339381623 281.828358209 405 c 2
 178.059701493 -110 l 2
 171.41345725 -142.98506402 175.028596856 -150 134 -150 c 2
 32 -150 l 6
 -5.1337890625 -150 5.38936683864 -122.374504797 10.5346820809 -96 c 2
 107.102601156 399 l 2
 112.419955928 426.256366682 121.778188119 435 86 435 c 2
 66 435 l 2
 39.309156763 435 45 444.093675616 45 469 c 2
 45 495 l 2
 45 523.044637313 48.8446788735 520 76 520 c 2
 110 520 l 2
 133.026996616 520 131.344644441 523.262918171 135 542 c 0
348 520 m 2
 532 520 l 2
 546.765117959 520 556.437040881 521.532074652 556.875 530 c 0
 557.206626456 536.411986754 542.7644811 537.203578058 532.00000135 539.033215067 c 0
 493.912034908 545.507021012 462 568.031880116 462 615 c 0
 462 651 486 668 486 680 c 0
 486 686 461 690 444 690 c 0
 389.528759759 690 344.123707337 654.559447618 313.770860852 553 c 0
 303.776451254 519.55909295 305.736013187 520 348 520 c 2
EndSplineSet
LCarets2: 1 0
Ligature2: "Not your mama's contextual ligatures" f f
EndChar

StartChar: uniFB01
Encoding: 64257 64257 543
Width: 806
VWidth: 1155
Flags: HMW
LayerCount: 2
Fore
SplineSet
693.316062176 478 m 2
 614 134 l 2
 612.599609375 128.094726562 611 119 611 114 c 0
 611 103 615 100 625 100 c 0
 647.49206341 100 669.98412682 122.450869072 698.95011806 168 c 0
 711.657323382 187.982128495 711.630998078 191.431329373 738 183.123287671 c 2
 756 177.452054795 l 2
 789.535304445 166.886136956 785.149409596 163.015932512 770.00000247 134.749805266 c 0
 712.820523198 28.0629611208 625.83858224 -20 543 -20 c 0
 476 -20 437 5 437 65 c 0
 437 84 441.448242188 104.684570312 445 120 c 2
 507.152558594 396 l 2
 515.061311066 431.120286786 521.009395639 435 476 435 c 2
 322 435 l 2
 288.465675526 435 290.358366758 431.040391243 284.757142857 404 c 2
 177.457142857 -114 l 2
 170.317095514 -148.46919407 169.998976934 -150 128 -150 c 2
 34 -150 l 2
 -10.2513374059 -150 2.50691897528 -137.517272413 9.23822714681 -104 c 6
 112.867036011 412 l 2
 118.598199541 440.537241853 109.353594922 435 78 435 c 0
 47.7080987715 435 45 432.674018364 45 464 c 2
 45 488 l 2
 45 516.692334873 42.2561750448 520 72 520 c 2
 110 520 l 2
 145.917135579 520 139.474103892 544.484848345 145 572 c 0
 171.451967421 703.712555019 282 800 462 800 c 0
 603 800 700 751 700 674 c 0
 700 596 641 567 587 567 c 0
 539 567 492 588 492 645 c 0
 492 681 521 693 521 705 c 0
 521 716 481 720 464 720 c 0
 404 720 341.459077345 677.733476836 315 550 c 0
 308.414956287 518.210133801 310.058325358 520 348 520 c 2
 662 520 l 2
 709.254624491 520 701.789862574 514.751538802 693.316062176 478 c 2
EndSplineSet
LCarets2: 1 0
Ligature2: "Not your mama's contextual ligatures" f i
EndChar

StartChar: uniFB02
Encoding: 64258 64258 544
Width: 834
VWidth: 1155
Flags: HMW
LayerCount: 2
Fore
SplineSet
780.708708709 754 m 2
 642 134 l 2
 640.599609375 128.094726562 639 119 639 114 c 0
 639 103 643 100 653 100 c 0
 673.053766475 100 693.10753295 117.847051028 717.749768574 154 c 0
 730.869825214 173.24860818 732.834644111 193.572646376 762 184.383561644 c 2
 782 178.082191781 l 2
 816.599393164 167.181013113 813.777161779 164.187207594 798.00000247 134.749805266 c 0
 740.820523198 28.0629611208 653.83858224 -20 571 -20 c 0
 504 -20 465 5 465 65 c 0
 465 84 469.448242188 104.684570312 473 120 c 2
 563.680224609 526 l 2
 568.711522072 548.526485554 571.214041021 547 547 547 c 4
 499 547 452 578 452 635 c 0
 452 671 476 698 476 710 c 0
 476 716 461 720 444 720 c 0
 384 720 341.459077345 677.733476836 315 550 c 0
 309.300038326 522.482943641 305.399049135 520 340 520 c 2
 402 520 l 2
 428.768359242 520 435 524.567275505 435 496 c 2
 435 466 l 2
 435 436.199690801 436.026590829 435 406 435 c 2
 326 435 l 2
 294.712931034 435 291.478037717 436.445699325 286 410 c 2
 177.042857143 -116 l 2
 170.895531092 -145.676746451 173.003523077 -150 136 -150 c 2
 40 -150 l 2
 -3.75910030737 -150 0.534154965617 -147.340276654 7.63157894737 -112 c 2
 112.063711911 408 l 2
 116.98558744 432.507545737 120.712093995 435 90 435 c 2
 72 435 l 2
 42.8146534766 435 45 437.603026599 45 466 c 2
 45 490 l 2
 45 515.410821194 41.4981547077 520 68 520 c 2
 104 520 l 2
 138.753750921 520 135.740394604 525.893551065 141.385041551 554 c 2
 145 572 l 2
 171.451967421 703.712555019 282 800 442 800 c 0
 519.263594141 800 577.309924025 779.281386973 613.999989898 749.526390344 c 0
 648.168370627 721.816435913 638.647547671 705.235685726 680 730.957206637 c 2
 752 775.741721251 l 2
 788.614781179 798.516376845 785.966028302 777.499160062 780.708708709 754 c 2
EndSplineSet
LCarets2: 1 0
Ligature2: "Not your mama's contextual ligatures" f l
EndChar

StartChar: uniFB03
Encoding: 64259 64259 545
Width: 1226
VWidth: 1155
Flags: HMW
LayerCount: 2
Fore
SplineSet
1117.92746114 498 m 6
 1034 134 l 2
 1032.59960938 128.094726562 1031 119 1031 114 c 0
 1031 103 1035 100 1045 100 c 0
 1065.95761858 100 1086.91523717 119.492090683 1113.11013526 159 c 0
 1126.22909211 178.786393351 1126.45462433 193.062241648 1155 184.068493151 c 2
 1180 176.191780822 l 2
 1209.1566037 167.005453629 1205.13277382 163.735914948 1192.24590373 138.999994403 c 0
 1135.11473884 29.3386146578 1046.930705 -20 963 -20 c 0
 896 -20 857 5 857 65 c 0
 857 84 861.448242188 104.684570312 865 120 c 2
 927.602939453 398 l 2
 934.859193948 430.222748119 941.576804622 435 900 435 c 2
 738 435 l 2
 710.361721461 435 711.488724481 432.443622407 707 410 c 2
 611.2 -69 l 2
 605.428876754 -97.8556162286 605.982741854 -100 571 -100 c 2
 468 -100 l 2
 433.231447837 -100 435.171699456 -99.1124458868 440.803571429 -70 c 2
 534.047619048 412 l 2
 538.648263507 435.7817929 538.229734442 435 510 435 c 2
 326 435 l 2
 281.173567895 435 285.968093879 425.545354809 278.805970149 390 c 2
 177.253731343 -114 l 2
 170.902056506 -145.52312697 173.116976149 -150 134 -150 c 2
 35 -150 l 2
 -7.1798607747 -150 1.40668831813 -142.78941988 7.80346820809 -110 c 2
 110.028901734 414 l 0
 114.125722543 435 l 1
 88 435 l 0
 70 435 l 2
 46.1875907626 435 45 433.981187174 45 458 c 2
 45 491 l 2
 45 511.452148438 45.5412522982 520 66 520 c 2
 110 520 l 2
 133.026996616 520 131.344644441 523.262918171 135 542 c 0
 160.719277634 673.835112022 282 770 442 770 c 0
 536.205586349 770 606.306077634 748.126858183 642.459401058 713.626158085 c 1
 696.98194574 767.051355671 777.092771653 800 882 800 c 0
 1023 800 1120 751 1120 674 c 0
 1120 596 1061 567 1007 567 c 0
 959 567 912 588 912 645 c 0
 912 681 941 693 941 705 c 0
 941 716 901 720 884 720 c 0
 824 720 760.538461538 677.692307692 735 550 c 0
 729.117452494 520.58726247 727.504711558 520 763 520 c 2
 1092 520 l 2
 1120.55498966 520 1122.03582389 515.818292385 1117.92746114 498 c 6
532.00000135 539.033215067 m 0
 493.912034908 545.507021012 462 568.031880116 462 615 c 0
 462 651 486 668 486 680 c 0
 486 686 461 690 444 690 c 0
 391.920862124 690 348.129113866 657.603840589 317.856271666 566 c 0
 304.758213377 526.366045725 299.478528163 520 354 520 c 2
 532 520 l 2
 567.934204796 520 560.631893762 534.166656607 532.00000135 539.033215067 c 0
EndSplineSet
LCarets2: 2 0 0
Ligature2: "Not your mama's contextual ligatures" f f i
EndChar

StartChar: uniFB04
Encoding: 64260 64260 546
Width: 1254
VWidth: 1155
Flags: HMW
LayerCount: 2
Fore
SplineSet
1203.61711712 767 m 2
 1062 134 l 2
 1060.59960938 128.094726562 1059 119 1059 114 c 0
 1059 103 1063 100 1073 100 c 0
 1095.16038488 100 1117.32076975 121.793609075 1145.67288238 166 c 0
 1157.41640172 184.310402953 1156.97741246 192.267390594 1182 184.383561644 c 2
 1207 176.506849315 l 2
 1234.50876999 167.839702606 1234.50787905 166.962042104 1222.0000024 142.405125737 c 0
 1164.93039365 30.3594405366 1075.79453129 -20 991 -20 c 0
 924 -20 885 5 885 65 c 0
 885 84 889.448242188 104.684570312 893 120 c 2
 983.233523999 524 l 2
 988.431361735 547.2721316 987.237290562 547 967 547 c 4
 919 547 872 578 872 635 c 0
 872 671 896 698 896 710 c 0
 896 716 881 720 864 720 c 0
 804 720 765 677 735 550 c 0
 729.39431854 521.971592698 726.094291524 520 761 520 c 2
 830 520 l 2
 849.437695524 520 855 523.822904147 855 503 c 2
 855 470 l 2
 855 437.727835839 857.358445693 435 824 435 c 2
 743 435 l 2
 711.908956096 435 711.763492594 433.817462971 706.6 408 c 2
 610.2 -74 l 2
 605.063283426 -99.6835828705 604.061017031 -100 573 -100 c 2
 467 -100 l 2
 438.309492689 -100 434.827543557 -100.891467152 440.029761905 -74 c 2
 538.49702381 435 l 1
 322 435 l 2
 289.416457608 435 287.888122808 435.07438727 282.432835821 408 c 2
 177.253731343 -114 l 2
 170.286470445 -148.578257792 169.920577579 -150 128 -150 c 2
 34 -150 l 2
 3.39820525277 -150 0.154556725175 -149.207753675 12.8757225434 -84 c 2
 107.687861272 402 l 2
 112.019416516 424.203231326 122.108612912 435 92 435 c 2
 73 435 l 2
 47.0639475979 435 45 433.20355373 45 460 c 2
 45 491 l 2
 45 518.804734269 43.9756329881 520 72 520 c 2
 104 520 l 2
 129.986116381 520 130.766638983 520.300105011 135 542 c 0
 165 673 282 770 442 770 c 0
 535.557157794 770 605.339915114 748.426932903 641.708036065 714.336777884 c 1
 694.169881826 767.343375633 769.163285802 800 862 800 c 0
 949.124608414 800 1011.81359322 773.655343293 1046.99999144 737.716366075 c 0
 1069.13395779 715.108990709 1063.58236027 708.305174432 1093 726.603156603 c 2
 1175 777.607742693 l 2
 1201.97470238 794.386200375 1209.21163336 792.006361172 1203.61711712 767 c 2
556.488095238 528 m 0
 557.483793382 535.583931592 553.138221731 536.552737118 541.000001382 537.808680009 c 0
 499.076744623 542.146483638 462 564.373637495 462 615 c 0
 462 651 486 668 486 680 c 0
 486 686 461 690 444 690 c 0
 388.12223656 690 341.784908931 652.705569105 311.449813661 545 c 0
 304.070120245 518.798200659 306.398604891 520 339 520 c 2
 542 520 l 2
 552.502527243 520 555.5820153 521.098663177 556.488095238 528 c 0
EndSplineSet
LCarets2: 2 0 0
Ligature2: "Not your mama's contextual ligatures" f f l
EndChar

StartChar: uniFFFD
Encoding: 65533 65533 547
Width: 855
Flags: HMW
LayerCount: 2
Fore
SplineSet
734 0 m 2
 642 0 l 2
 528 0 484 28 484 88 c 0
 484 139 509 188 509 240 c 0
 509 291 492 320 427 320 c 2
 352 320 l 2
 320.136857745 320 311.2099922 324.421838436 305.36 297 c 2
 273.786666667 149 l 2
 266.867931399 116.568428431 254.484762997 105 298 105 c 2
 328 105 l 2
 360.243335035 105 370 111.582220561 370 77 c 2
 370 43 l 2
 370 4.61920437609 373.806094938 0 334 0 c 2
 -4 0 l 2
 -31.7060789645 0 -30 1.99471308766 -30 29 c 2
 -30 85 l 2
 -30 108.906242946 -24.5213429703 105 -2 105 c 2
 40 105 l 2
 76.1395932324 105 75.034022304 107.97197955 81.2266666667 137 c 2
 181.493333333 607 l 2
 187.829391983 636.700274919 197.445602474 645 158 645 c 2
 114 645 l 2
 79.0791238105 645 80 646.086532483 80 681 c 2
 80 719 l 2
 80 756.275766389 88.9125561461 750 124 750 c 2
 539 750 l 2
 720 750 809 700 809 580 c 0
 809 475.94477966 717.689453125 405.244140625 597 381.826171875 c 0
 558.97265625 374.448242188 562.09375 369.171875 597 361.110351562 c 0
 657.616210938 347.111328125 704.999999944 309.499492373 705 257 c 0
 705 197 678 159 678 139 c 0
 678 118 685 105 708 105 c 2
 740 105 l 2
 761.454129355 105 767 102.9375 767 80 c 6
 767 24 l 2
 767 -4.4629630391 760.842548082 0 734 0 c 2
372 430 m 2
 469 430 l 2
 545 430 619 501 619 580 c 0
 619 619 595 645 539 645 c 2
 412 645 l 2
 375.047799968 645 378.22876508 638.572336311 371.92 609 c 2
 342.906666667 473 l 2
 335.404593448 437.834031788 325.656185335 430 372 430 c 2
EndSplineSet
EndChar

StartChar: uniFFF0
Encoding: 65520 65520 548
Width: 420
VWidth: 1155
Flags: HMW
LayerCount: 2
Fore
SplineSet
79 435 m 2
 43 435 l 2
 14.5724108633 435 15.001953125 435.539058795 15.001953125 464 c 2
 15.001953125 498 l 2
 15.001953125 524.370104543 21.1670378124 520 46 520 c 2
 132 520 l 2
 202.562414096 520 226.298481896 572.663519444 232 601.004216421 c 0
 234.234350525 612.110565642 238.342185846 618 252 618 c 2
 294 618 l 2
 314.72977174 618 312.730346173 616.966686534 308.563674322 601 c 2
 292.123173278 538 l 2
 287.610787811 520.708538892 289.98046875 520 312 520 c 6
 374 520 l 2
 397.957410753 520 400.001953125 521.76573155 400.001953125 497 c 2
 400.001953125 455 l 2
 400.001953125 436.38916238 401.219156266 435 382 435 c 2
 288 435 l 2
 266.486460781 435 265.235964294 434.968215177 260.807933194 418 c 2
 188 139 l 2
 185.051757812 126.994140625 184 123 184 114 c 0
 184 103 189 95 202 95 c 0
 222.523744596 95 242.424376629 116.808939687 265.636850896 155.999994914 c 0
 278.280363299 177.346818488 277.659999567 192.693846254 309 185.461538462 c 2
 337 179 l 2
 363.709571222 172.836252795 363.420056135 172.134333118 353 148.892356004 c 0
 305.657418193 43.294536893 227.669678109 -20 115 -20 c 0
 48 -20 10 8 10 58 c 0
 10 66 10.880859375 77.0283203125 13 86 c 2
 102.112903226 411 l 2
 108.705246421 435.042663417 109.618237719 435 79 435 c 2
EndSplineSet
EndChar

